<svg xmlns="http://www.w3.org/2000/svg" xmlns:xlink="http://www.w3.org/1999/xlink" width="28" height="20" viewBox="0 0 28 20"><defs><rect id="a" width="28" height="20" x="0" y="0" rx="2"/></defs><g fill="none" fill-rule="evenodd"><mask id="b" fill="#fff"><use xlink:href="#a"/></mask><use xlink:href="#a" fill="#FFF"/><rect width="28" height="20" fill="#1537D1" mask="url(#b)"/><rect width="14.667" height="20" x="13.333" fill="#EA3058" mask="url(#b)"/><rect width="9.333" height="20" x="9.333" fill="#FFCF3C" mask="url(#b)"/><polygon fill="#FFEDB1" points="12.667 8.667 14 8.667 14 9.333 12.667 9.333" mask="url(#b)"/><path stroke="#D32E28" stroke-width=".667" d="M15.0665374,8.39489763 L15.4415896,10.6785707 C15.4092668,10.946949 15.2747377,11.1880997 15.0822696,11.3651924 C14.8810676,11.5503212 14.6151696,11.6666667 14.330079,11.6666667 L13.669921,11.6666667 C13.3848946,11.6666667 13.1182368,11.5509462 12.9165675,11.3653873 C12.7157804,11.1806402 12.5782803,10.9254984 12.5545201,10.6403761 L12.4118856,8.92876276 L15.0665374,8.39489763 Z" mask="url(#b)"/><polygon fill="#D32E28" points="12.667 9.333 15.333 9.333 15.333 10 14.667 10 13.333 10 12.667 10" mask="url(#b)"/></g></svg>