<svg xmlns="http://www.w3.org/2000/svg" xmlns:xlink="http://www.w3.org/1999/xlink" width="28" height="20" viewBox="0 0 28 20"><defs><polygon id="c" points="0 0 28 0 14 20"/><polygon id="e" points="14 11 11.704 13.543 11.879 10.121 8.457 10.296 11 8 8 5.333 11.879 6 11.333 2 14 5.333 16.667 2 16.121 6 20 5.333 17 8 19.543 10.296 16.121 10.121 16.296 13.543"/><filter id="f" width="163%" height="162.4%" x="-31.5%" y="-34.2%" filterUnits="objectBoundingBox"><feMorphology in="SourceAlpha" operator="dilate" radius=".5" result="shadowSpreadOuter1"/><feOffset in="shadowSpreadOuter1" result="shadowOffsetOuter1"/><feColorMatrix in="shadowOffsetOuter1" values="0 0 0 0 0 0 0 0 0 0 0 0 0 0 0 0 0 0 0.06 0"/></filter><filter id="h" width="110.7%" height="156.2%" x="-5.4%" y="-28.1%" filterUnits="objectBoundingBox"><feMorphology in="SourceAlpha" operator="dilate" radius=".5" result="shadowSpreadOuter1"/><feOffset in="shadowSpreadOuter1" result="shadowOffsetOuter1"/><feColorMatrix in="shadowOffsetOuter1" values="0 0 0 0 0 0 0 0 0 0 0 0 0 0 0 0 0 0 0.06 0"/></filter><rect id="a" width="28" height="20" x="0" y="0" rx="2"/><rect id="g" width="28" height="5.333" x="0" y="8"/></defs><g fill="none" fill-rule="evenodd"><mask id="b" fill="#fff"><use xlink:href="#a"/></mask><use xlink:href="#a" fill="#FFF"/><rect width="28" height="20" fill="#E2243B" mask="url(#b)"/><g mask="url(#b)"><mask id="d" fill="#fff"><use xlink:href="#c"/></mask><use xlink:href="#c" fill="#262626"/><g mask="url(#d)"><use xlink:href="#e" fill="#000" filter="url(#f)"/><use xlink:href="#e" fill="#FFCF3C"/></g><g mask="url(#d)"><use xlink:href="#g" fill="#000" filter="url(#h)"/><use xlink:href="#g" fill="#1984D8"/></g><rect width="28" height="6.667" y="13.333" fill="#FFF" mask="url(#d)"/></g></g></svg>