<svg xmlns="http://www.w3.org/2000/svg" xmlns:xlink="http://www.w3.org/1999/xlink" width="28" height="20" viewBox="0 0 28 20"><defs><rect id="a" width="28" height="20" x="0" y="0" rx="2"/></defs><g fill="none" fill-rule="evenodd"><mask id="b" fill="#fff"><use xlink:href="#a"/></mask><rect width="27.5" height="19.5" x=".25" y=".25" stroke="#F5F5F5" stroke-width=".5" rx="2"/><rect width="6.667" height="20" x="10.667" fill="#D6182D" mask="url(#b)"/><rect width="28" height="6.667" y="6.667" fill="#1425A2" mask="url(#b)"/><polygon fill="#FFF" points="11.333 11.667 10.862 11.805 11 11.333 10.862 10.862 11.333 11 11.805 10.862 11.667 11.333 11.805 11.805" mask="url(#b)"/><polygon fill="#FFF" points="16.667 11.667 16.195 11.805 16.333 11.333 16.195 10.862 16.667 11 17.138 10.862 17 11.333 17.138 11.805" mask="url(#b)"/><polygon fill="#FFF" points="8.667 10.333 8.195 10.471 8.333 10 8.195 9.529 8.667 9.667 9.138 9.529 9 10 9.138 10.471" mask="url(#b)"/><polygon fill="#FFF" points="19.333 10.333 18.862 10.471 19 10 18.862 9.529 19.333 9.667 19.805 9.529 19.667 10 19.805 10.471" mask="url(#b)"/><polygon fill="#FFF" points="14 9 13.529 9.138 13.667 8.667 13.529 8.195 14 8.333 14.471 8.195 14.333 8.667 14.471 9.138" mask="url(#b)"/></g></svg>