<svg xmlns="http://www.w3.org/2000/svg" xmlns:xlink="http://www.w3.org/1999/xlink" width="28" height="20" viewBox="0 0 28 20"><defs><linearGradient id="c" x1="50%" x2="50%" y1="0%" y2="100%"><stop offset="0%" stop-color="#FFF"/><stop offset="100%" stop-color="#F0F0F0"/></linearGradient><linearGradient id="d" x1="50%" x2="50%" y1="0%" y2="100%"><stop offset="0%" stop-color="#FF2E3B"/><stop offset="100%" stop-color="#FC0D1B"/></linearGradient><rect id="a" width="28" height="20" x="0" y="0" rx="2"/></defs><g fill="none" fill-rule="evenodd"><mask id="b" fill="#fff"><use xlink:href="#a"/></mask><use xlink:href="#a" fill="#FFF"/><rect width="28" height="20" fill="#0A17A7" mask="url(#b)"/><path fill="#FF2E3B" stroke="#FFF" stroke-width=".667" d="M12.2968145,-0.578591639 C12.4289261,0.574083174 12.1796848,0.947954902 11.9158002,1.1364439 L7.66666667,4.1715393 L7.66666667,5.18002169 L15.1566841,11.6000366 L6.57256028,6.33333333 L5.42893208,6.33333333 L-0.333333333,9.93474921 L-0.333333333,8.49512737 L4.33333333,5.16179403 L4.33333333,4.15331164 L-0.901085803,-0.333333333 L0.773488351,-0.333333333 L5.44015502,3 L6.57106792,3 Z" mask="url(#b)"/><path fill="url(#c)" d="M0,3.33333333 L0,6 L4.66666667,6 L4.66666667,9.33948135 C4.66666667,9.70427573 4.97256724,10 5.33957926,10 L6.66042074,10 C7.0320601,10 7.33333333,9.69934988 7.33333333,9.33948135 L7.33333333,6 L11.9911963,6 C12.3642483,6 12.6666667,5.69409943 12.6666667,5.3270874 L12.6666667,4.00624593 C12.6666667,3.63460657 12.3646425,3.33333333 11.9911963,3.33333333 L7.33333333,3.33333333 L7.33333333,0 L4.66666667,0 L4.66666667,3.33333333 L0,3.33333333 Z" mask="url(#b)"/><polygon fill="url(#d)" points="0 4 5.333 4 5.333 3.333 5.333 0 6.667 0 6.667 3.333 6.667 4 12 4 12 5.333 6.667 5.333 6.667 6 6.667 9.333 5.333 9.333 5.333 6 5.333 5.333 0 5.333" mask="url(#b)"/><polygon fill="#FFF" points="6 16.333 4.824 16.951 5.049 15.642 4.098 14.715 5.412 14.524 6 13.333 6.588 14.524 7.902 14.715 6.951 15.642 7.176 16.951" mask="url(#b)"/><polygon fill="#FFF" points="20 17.333 19.057 17.609 19.333 16.667 19.057 15.724 20 16 20.943 15.724 20.667 16.667 20.943 17.609" mask="url(#b)"/><polygon fill="#FFF" points="20 4.667 19.057 4.943 19.333 4 19.057 3.057 20 3.333 20.943 3.057 20.667 4 20.943 4.943" mask="url(#b)"/><polygon fill="#FFF" points="24 8.667 23.057 8.943 23.333 8 23.057 7.057 24 7.333 24.943 7.057 24.667 8 24.943 8.943" mask="url(#b)"/><polygon fill="#FFF" points="16 10 15.057 10.276 15.333 9.333 15.057 8.391 16 8.667 16.943 8.391 16.667 9.333 16.943 10.276" mask="url(#b)"/><polygon fill="#FFF" points="22 11.667 21.529 11.805 21.667 11.333 21.529 10.862 22 11 22.471 10.862 22.333 11.333 22.471 11.805" mask="url(#b)"/></g></svg>