<svg xmlns="http://www.w3.org/2000/svg" xmlns:xlink="http://www.w3.org/1999/xlink" width="28" height="20" viewBox="0 0 28 20"><defs><filter id="d" width="125%" height="150%" x="-12.5%" y="-12.5%" filterUnits="objectBoundingBox"><feOffset dy="1" in="SourceAlpha" result="shadowOffsetOuter1"/><feColorMatrix in="shadowOffsetOuter1" values="0 0 0 0 0 0 0 0 0 0 0 0 0 0 0 0 0 0 0.06 0"/></filter><rect id="a" width="28" height="20" x="0" y="0" rx="2"/><path id="c" d="M14,8 C14.4113508,8 14.7936966,8.12418541 15.1115914,8.33711027 C15.074919,8.33457876 15.037605,8.33333333 15,8.33333333 C14.0795254,8.33333333 13.3333333,9.07952542 13.3333333,10 C13.3333333,10.9204746 14.0795254,11.6666667 15,11.6666667 L15.1115914,11.6628897 C14.7936966,11.8758146 14.4113508,12 14,12 C12.8954305,12 12,11.1045695 12,10 C12,8.8954305 12.8954305,8 14,8 Z M15.3333333,9.33333333 C15.7015232,9.33333333 16,9.63181017 16,10 C16,10.3681898 15.7015232,10.6666667 15.3333333,10.6666667 C14.9651435,10.6666667 14.6666667,10.3681898 14.6666667,10 C14.6666667,9.63181017 14.9651435,9.33333333 15.3333333,9.33333333 Z"/></defs><g fill="none" fill-rule="evenodd"><mask id="b" fill="#fff"><use xlink:href="#a"/></mask><use xlink:href="#a" fill="#FFF"/><rect width="28" height="6.667" fill="#24AAD5" mask="url(#b)"/><rect width="28" height="6.667" y="13.333" fill="#21BF75" mask="url(#b)"/><rect width="28" height="6.667" y="6.667" fill="#ED1845" mask="url(#b)"/><g mask="url(#b)"><use xlink:href="#c" fill="#000" filter="url(#d)"/><use xlink:href="#c" fill="#FFF"/></g></g></svg>