<svg xmlns="http://www.w3.org/2000/svg" xmlns:xlink="http://www.w3.org/1999/xlink" width="28" height="20" viewBox="0 0 28 20"><defs><polygon id="c" points="22.667 20 22.667 0 8.667 0"/><filter id="d" width="128%" height="125.9%" x="-17.3%" y="-7.5%" filterUnits="objectBoundingBox"><feMorphology in="SourceAlpha" operator="dilate" radius=".5" result="shadowSpreadOuter1"/><feOffset in="shadowSpreadOuter1" result="shadowOffsetOuter1"/><feColorMatrix in="shadowOffsetOuter1" values="0 0 0 0 0 0 0 0 0 0 0 0 0 0 0 0 0 0 0.06 0"/></filter><rect id="a" width="28" height="20" x="0" y="0" rx="2"/></defs><g fill="none" fill-rule="evenodd"><mask id="b" fill="#fff"><use xlink:href="#a"/></mask><use xlink:href="#a" fill="#FFF"/><rect width="28" height="20" fill="#0B36B2" mask="url(#b)"/><g mask="url(#b)"><use xlink:href="#c" fill="#000" filter="url(#d)"/><use xlink:href="#c" fill="#FFD045"/></g><polygon fill="#FFF" points="17.333 18.667 16.391 18.943 16.667 18 16.391 17.057 17.333 17.333 18.276 17.057 18 18 18.276 18.943" mask="url(#b)"/><polygon fill="#FFF" points="14.667 14.667 13.724 14.943 14 14 13.724 13.057 14.667 13.333 15.609 13.057 15.333 14 15.609 14.943" mask="url(#b)"/><polygon fill="#FFF" points="12 10.667 11.057 10.943 11.333 10 11.057 9.057 12 9.333 12.943 9.057 12.667 10 12.943 10.943" mask="url(#b)"/><polygon fill="#FFF" points="9.333 6.667 8.391 6.943 8.667 6 8.391 5.057 9.333 5.333 10.276 5.057 10 6 10.276 6.943" mask="url(#b)"/><polygon fill="#FFF" points="6.667 2.667 5.724 2.943 6 2 5.724 1.057 6.667 1.333 7.609 1.057 7.333 2 7.609 2.943" mask="url(#b)"/></g></svg>