<svg xmlns="http://www.w3.org/2000/svg" xmlns:xlink="http://www.w3.org/1999/xlink" width="28" height="20" viewBox="0 0 28 20"><defs><rect id="a" width="28" height="20" x="0" y="0" rx="2"/></defs><g fill="none" fill-rule="evenodd"><mask id="b" fill="#fff"><use xlink:href="#a"/></mask><use xlink:href="#a" fill="#FFF"/><rect width="28" height="20" fill="#E4233B" mask="url(#b)"/><polygon fill="#34CD4E" points="0 0 12 10 0 20" mask="url(#b)"/><polygon fill="#34CD4E" points="16 0 28 10 16 20" mask="url(#b)" transform="matrix(-1 0 0 1 44 0)"/><path fill="#FFF" d="M29.2824692,-1.91644623 L30.7736503,0.29432063 L18.454135,8.60353711 C18.5922336,9.04446151 18.6666667,9.51353836 18.6666667,10 C18.6666667,10.4864616 18.5922336,10.9555385 18.454135,11.3964629 L30.7736503,19.7056794 L29.2824692,21.9164462 L16.9622332,13.6061348 C16.1564623,14.2687994 15.1246946,14.6666667 14,14.6666667 C12.8757673,14.6666667 11.8443852,14.2691261 11.0387596,13.606951 L-1.2824692,21.9164462 L-2.77365027,19.7056794 L9.54586501,11.3964629 C9.40776645,10.9555385 9.33333333,10.4864616 9.33333333,10 C9.33333333,9.51353836 9.40776645,9.04446151 9.54586501,8.60353711 L-2.77365027,0.29432063 L-1.2824692,-1.91644623 L11.0387596,6.39304896 C11.8443852,5.73087387 12.8757673,5.33333333 14,5.33333333 C15.1246946,5.33333333 16.1564623,5.73120059 16.9622332,6.39386525 L29.2824692,-1.91644623 Z" mask="url(#b)"/><path fill="#DF2239" d="M14,8.66666667 L13.057191,8.94280904 L13.3333333,8 L13.057191,7.05719096 L14,7.33333333 L14.942809,7.05719096 L14.6666667,8 L14.942809,8.94280904 L14,8.66666667 Z M12,12 L11.057191,12.2761424 L11.3333333,11.3333333 L11.057191,10.3905243 L12,10.6666667 L12.942809,10.3905243 L12.6666667,11.3333333 L12.942809,12.2761424 L12,12 Z M16,12 L15.057191,12.2761424 L15.3333333,11.3333333 L15.057191,10.3905243 L16,10.6666667 L16.942809,10.3905243 L16.6666667,11.3333333 L16.942809,12.2761424 L16,12 Z" mask="url(#b)"/></g></svg>