<svg xmlns="http://www.w3.org/2000/svg" xmlns:xlink="http://www.w3.org/1999/xlink" width="28" height="20" viewBox="0 0 28 20"><defs><circle id="c" cx="4.667" cy="4.667" r="4.667"/><rect id="a" width="28" height="20" x="0" y="0" rx="2"/></defs><g fill="none" fill-rule="evenodd"><mask id="b" fill="#fff"><use xlink:href="#a"/></mask><use xlink:href="#a" fill="#FFF"/><rect width="28" height="20" fill="#05AB41" mask="url(#b)"/><path fill="#FDD216" d="M3.22868843,10.3636611 C2.91829238,10.1628166 2.92467316,9.83305462 3.22868843,9.63633886 L13.4379782,3.03032781 C13.7483743,2.82948331 14.2580065,2.83361204 14.5620218,3.03032781 L24.7713116,9.63633886 C25.0817076,9.83718336 25.0753268,10.1669454 24.7713116,10.3636611 L14.5620218,16.9696722 C14.2516257,17.1705167 13.7419935,17.166388 13.4379782,16.9696722 L3.22868843,10.3636611 Z" mask="url(#b)"/><g mask="url(#b)"><g transform="translate(9.333 5.333)"><mask id="d" fill="#fff"><use xlink:href="#c"/></mask><use xlink:href="#c" fill="#053087"/><path stroke="#FFF" stroke-linecap="square" stroke-width="1.333" d="M-0.666666667,4 C3.8524739e-14,3.33333336 2.41015625,3.64518235 4.66666667,4.00000001 C6.92317708,4.35481767 9.34145555,5.34145565 10,6" mask="url(#d)" transform="rotate(6 4.667 4.804)"/></g></g></g></svg>