<svg xmlns="http://www.w3.org/2000/svg" xmlns:xlink="http://www.w3.org/1999/xlink" width="28" height="20" viewBox="0 0 28 20"><defs><rect id="a" width="28" height="20" x="0" y="0" rx="2"/></defs><g fill="none" fill-rule="evenodd"><mask id="b" fill="#fff"><use xlink:href="#a"/></mask><use xlink:href="#a" fill="#FFF"/><rect width="28" height="13.333" fill="#E54252" mask="url(#b)"/><rect width="28" height="6.667" y="13.333" fill="#5CBE6B" mask="url(#b)"/><path fill="#FFF" d="M4,0 L4,2.999 L3.33333333,4 L4,5.001 L4,6.999 L3.33333333,8 L4,9.001 L4,10.999 L3.33333333,12 L4,13.001 L4,14.999 L3.33333333,16 L4,17.001 L4,20 L0,20 L0,0 L4,0 Z" mask="url(#b)"/><path fill="#E54252" d="M-.666666667 14 .666666667 16-.666666667 18-2 16-.666666667 14ZM-.666666667 10 .666666667 12-.666666667 14-2 12-.666666667 10ZM-.666666667 6 .666666667 8-.666666667 10-2 8-.666666667 6ZM-.666666667 2 .666666667 4-.666666667 6-2 4-.666666667 2ZM2 16 3.33333333 18 2 20 .666666667 18 2 16ZM2 12 3.33333333 14 2 16 .666666667 14 2 12ZM2 8 3.33333333 10 2 12 .666666667 10 2 8ZM2 4 3.33333333 6 2 8 .666666667 6 2 4ZM2 0 3.33333333 2 2 4 .666666667 2 2 0Z" mask="url(#b)"/></g></svg>