<svg xmlns="http://www.w3.org/2000/svg" xmlns:xlink="http://www.w3.org/1999/xlink" width="28" height="20" viewBox="0 0 28 20"><defs><rect id="a" width="28" height="20" x="0" y="0" rx="2"/></defs><g fill="none" fill-rule="evenodd"><mask id="b" fill="#fff"><use xlink:href="#a"/></mask><use xlink:href="#a" fill="#FFF"/><rect width="28" height="20" fill="#19BFBF" mask="url(#b)"/><path fill="#FFF" d="M8.05455613 5.66067012C8.02442561 5.47988701 8.10128021 5.23205312 8.23664888 5.09668446L10.4300178 2.90331554C10.5607154 2.77261798 10.8236033 2.66666667 10.996926 2.66666667L12.3364073 2.66666667C12.5188045 2.66666667 12.7330265 2.79938634 12.8146216 2.96257655L13.1853784 3.70409012C13.2670916 3.86751663 13.4767049 4 13.660319 4L15.6730143 4C15.8536035 4 16.0665436 4.13308716 16.1503251 4.30065012L17.8496749 7.69934988C17.9326972 7.86539436 18.1569366 8 18.3302593 8L19.6697407 8C19.8521379 8 19.9140625 8.11458333 19.8009205 8.26543935L18.1990795 10.4012273C18.0891309 10.5478254 17.9336402 10.7993863 17.8520451 10.9625765L17.4812883 11.7040901C17.399575 11.8675166 17.3333333 12.14269 17.3333333 12.3364563L17.3333333 12.996877C17.3333333 13.1826967 17.2669735 13.466053 17.1853784 13.6292432L16.8146216 14.3707568C16.7329084 14.5341833 16.6003068 14.7993863 16.5187117 14.9625765L16.1479549 15.7040901C16.0662417 15.8675166 15.9336402 16.1327197 15.8520451 16.2959099L15.4812883 17.0374235C15.399575 17.20085 15.1906433 17.3333333 14.996877 17.3333333L14.3364563 17.3333333C14.1506366 17.3333333 13.9336402 17.2006137 13.8520451 17.0374235L13.4812883 16.2959099C13.399575 16.1324834 13.3333333 15.8480797 13.3333333 15.6589622L13.3333333 12.3410378C13.3333333 12.1526878 13.2291667 11.8958333 13.0926514 11.759318L12.9073486 11.5740153C12.7744237 11.4410903 12.6187216 11.1894983 12.5625 11.0208333L12.1041667 9.64583333C12.046637 9.47324435 11.8567708 9.33333333 11.6682008 9.33333333L8.99846586 9.33333333C8.81521822 9.33333333 8.64134661 9.18141301 8.61211054 9.00599655L8.05455613 5.66067012ZM18.6666667 13.660319C18.6666667 13.4797298 18.8093567 13.3333333 19.003123 13.3333333L19.6635437 13.3333333C19.8493634 13.3333333 20 13.4760234 20 13.6697896L20 14.3302104C20 14.5160301 19.9336402 14.7993863 19.8520451 14.9625765L19.4812883 15.7040901C19.399575 15.8675166 19.1787109 16 19 16L19 16C18.8159051 16 18.6666667 15.8566284 18.6666667 15.6730143L18.6666667 13.660319Z" mask="url(#b)"/></g></svg>