<svg xmlns="http://www.w3.org/2000/svg" xmlns:xlink="http://www.w3.org/1999/xlink" width="28" height="20" viewBox="0 0 28 20"><defs><rect id="a" width="28" height="20" x="0" y="0" rx="2"/></defs><g fill="none" fill-rule="evenodd"><mask id="b" fill="#fff"><use xlink:href="#a"/></mask><use xlink:href="#a" fill="#FFF"/><rect width="28" height="20" fill="red" mask="url(#b)"/><path fill="#FFF" d="M12,12 L8.34103775,12 C8.1526878,12 8,11.8480797 8,11.6589622 L8,8.34103775 C8,8.1526878 8.15192032,8 8.34103775,8 L12,8 L12,4.34103775 C12,4.1526878 12.1519203,4 12.3410378,4 L15.6589622,4 C15.8473122,4 16,4.15192032 16,4.34103775 L16,8 L19.6589622,8 C19.8473122,8 20,8.15192032 20,8.34103775 L20,11.6589622 C20,11.8473122 19.8480797,12 19.6589622,12 L16,12 L16,15.6589622 C16,15.8473122 15.8480797,16 15.6589622,16 L12.3410378,16 C12.1526878,16 12,15.8480797 12,15.6589622 L12,12 Z" mask="url(#b)"/></g></svg>