<svg xmlns="http://www.w3.org/2000/svg" xmlns:xlink="http://www.w3.org/1999/xlink" width="28" height="20" viewBox="0 0 28 20"><defs><rect id="a" width="28" height="20" x="0" y="0" rx="2"/></defs><g fill="none" fill-rule="evenodd"><mask id="b" fill="#fff"><use xlink:href="#a"/></mask><rect width="27.5" height="19.5" x=".25" y=".25" stroke="#F5F5F5" stroke-width=".5" rx="2"/><path fill="#EF264D" d="M0,12 L8,12 L8,20 L1.99124431,20 C0.891510444,20 0,19.1017876 0,18.0092049 L0,12 Z M28,12 L28,18.0092049 C28,19.1086907 27.1001025,20 26.0087557,20 L12,20 L12,12 L28,12 Z M26.0087557,0 C27.1084896,0 28,0.898212381 28,1.99079514 L28,8 L12,8 L12,0 L26.0087557,0 Z M8,8 L0,8 L0,1.99079514 C0,0.891309342 0.899897516,0 1.99124431,0 L8,0 L8,8 Z" mask="url(#b)"/></g></svg>