<svg xmlns="http://www.w3.org/2000/svg" xmlns:xlink="http://www.w3.org/1999/xlink" width="28" height="20" viewBox="0 0 28 20"><defs><linearGradient id="c" x1="50%" x2="50%" y1="0%" y2="100%"><stop offset="0%" stop-color="#E02C42"/><stop offset="100%" stop-color="#D22036"/></linearGradient><rect id="a" width="28" height="20" x="0" y="0" rx="2"/></defs><g fill="none" fill-rule="evenodd"><mask id="b" fill="#fff"><use xlink:href="#a"/></mask><use xlink:href="#a" fill="#FFF"/><rect width="28" height="8" fill="#108753" mask="url(#b)"/><rect width="28" height="8" y="12" fill="#108753" mask="url(#b)"/><path fill="#FFF" d="M16,0 L16,8 L28,8 L28,12 L16,12 L16,20 L12,20 L12,12 L0,12 L0,8 L12,8 L12,0 L16,0 Z" mask="url(#b)"/><path fill="#262626" d="M14.6666667,0 L14.666,9.333 L28,9.33333333 L28,10.6666667 L14.666,10.666 L14.6666667,20 L13.3333333,20 L13.333,10.666 L0,10.6666667 L0,9.33333333 L13.333,9.333 L13.3333333,0 L14.6666667,0 Z" mask="url(#b)"/><path fill="#FCD449" d="M13.3333333,0 L13.333,8 L28,8 L28,9.33333333 L13.333,9.333 L13.3333333,20 L12,20 L12,9.333 L0,9.33333333 L0,8 L12,8 L12,0 L13.3333333,0 Z" mask="url(#b)"/><circle cx="14" cy="10" r="4.667" fill="url(#c)" mask="url(#b)"/><path stroke="#0E673F" stroke-dasharray=".667 2.667" stroke-linecap="round" stroke-width="1.333" d="M14,13.3333333 C15.8409492,13.3333333 17.3333333,11.8409492 17.3333333,10 C17.3333333,8.15905083 15.8409492,6.66666667 14,6.66666667 C12.1590508,6.66666667 10.6666667,8.15905083 10.6666667,10 C10.6666667,11.8409492 12.1590508,13.3333333 14,13.3333333 Z" mask="url(#b)"/><path fill="#0E673F" d="M14,11.3333333 C14.7363797,11.3333333 14.6666667,10.7363797 14.6666667,10 C14.6666667,9.26362033 14.7363797,8.66666667 14,8.66666667 C13.2636203,8.66666667 13.3333333,9.26362033 13.3333333,10 C13.3333333,10.7363797 13.2636203,11.3333333 14,11.3333333 Z" mask="url(#b)"/></g></svg>