<svg xmlns="http://www.w3.org/2000/svg" xmlns:xlink="http://www.w3.org/1999/xlink" width="28" height="20" viewBox="0 0 28 20"><defs><rect id="a" width="28" height="20" x="0" y="0" rx="2"/></defs><g fill="none" fill-rule="evenodd"><mask id="b" fill="#fff"><use xlink:href="#a"/></mask><rect width="27.5" height="19.5" x=".25" y=".25" stroke="#F5F5F5" stroke-width=".5" rx="2"/><rect width="14.667" height="20" fill="#048345" mask="url(#b)"/><polygon fill="#E81B42" points="17.333 11.04 15.766 12.157 16.344 10.321 14.797 9.176 16.722 9.159 17.333 7.333 17.945 9.159 19.869 9.176 18.322 10.321 18.901 12.157" mask="url(#b)"/><path fill="#E81B42" d="M13.7509001,4 C15.2712322,4 16.6537735,4.61550603 17.6820863,5.62070525 C16.9732717,5.28169377 16.1700274,5.09090909 15.3193274,5.09090909 C12.4319325,5.09090909 10.0912364,7.28878396 10.0912364,10 C10.0912364,12.711216 12.4319325,14.9090909 15.3193274,14.9090909 C16.1700274,14.9090909 16.9732717,14.7183062 17.6831793,14.3798184 C16.6537735,15.384494 15.2712322,16 13.7509001,16 C10.5747657,16 8,13.3137085 8,10 C8,6.6862915 10.5747657,4 13.7509001,4 Z" mask="url(#b)"/></g></svg>