<svg xmlns="http://www.w3.org/2000/svg" xmlns:xlink="http://www.w3.org/1999/xlink" width="28" height="20" viewBox="0 0 28 20"><defs><rect id="a" width="28" height="20" x="0" y="0" rx="2"/></defs><g fill="none" fill-rule="evenodd"><mask id="b" fill="#fff"><use xlink:href="#a"/></mask><use xlink:href="#a" fill="#FFF"/><rect width="28" height="5.333" y="9.333" fill="#0748AE" mask="url(#b)"/><rect width="28" height="5.333" y="14.667" fill="#DE2035" mask="url(#b)"/><rect width="28" height="9.333" fill="#FFD935" mask="url(#b)"/><path fill="#FFD935" d="M15.6006443,8.000445 C16.2479827,8.48698468 16.6666667,9.26134267 16.6666667,10.1334895 C16.6666667,11.6062489 15.4727593,12.8001562 14,12.8001562 C12.5272407,12.8001562 11.3333333,11.6062489 11.3333333,10.1334895 C11.3333333,9.26151966 11.7518473,8.48729898 12.3989616,8.00074125 L13.3333333,10.8001562 L14.6666667,10.8001562 Z" mask="url(#b)"/><polygon fill="#5FC0DC" points="14 7.333 14.667 10.667 13.333 10.667" mask="url(#b)"/><polyline stroke="#3F2821" stroke-linecap="round" stroke-linejoin="round" stroke-width=".667" points="17.333 6 15.333 5.333 14 6.667 12.667 5.333 10.667 6" mask="url(#b)" opacity=".66"/></g></svg>