<svg xmlns="http://www.w3.org/2000/svg" xmlns:xlink="http://www.w3.org/1999/xlink" width="28" height="20" viewBox="0 0 28 20"><defs><rect id="a" width="28" height="20" x="0" y="0" rx="2"/></defs><g fill="none" fill-rule="evenodd"><mask id="b" fill="#fff"><use xlink:href="#a"/></mask><use xlink:href="#a" fill="#FFF"/><rect width="28" height="5.333" fill="#DD172C" mask="url(#b)"/><rect width="28" height="5.333" y="14.667" fill="#DD172C" mask="url(#b)"/><rect width="28" height="9.333" y="5.333" fill="#FFD133" mask="url(#b)"/><polygon fill="#FFEDB1" points="7.333 9.333 8.667 9.333 8.667 10 7.333 10" mask="url(#b)"/><path stroke="#A41517" stroke-width=".667" d="M8.36054223,9.00165627 L8.44439251,11.3192353 C8.41969369,11.5790981 8.29982915,11.8150005 8.12340343,11.9939217 C7.94608483,12.1737485 7.71082751,12.2969932 7.45274305,12.3265124 C7.11673898,12.3258081 6.82210553,12.2174562 6.60386876,12.034672 C6.38541019,11.851702 6.24515646,11.5946793 6.22118675,11.3070428 L6.07733827,9.58086102 L8.36054223,9.00165627 Z" mask="url(#b)"/><polygon fill="#A41517" points="6 10 8.667 10 8.667 10.667 8 10.667 7.333 12 6.667 10.667 6 10.667" mask="url(#b)"/><rect width="1.333" height="4.667" x="4" y="8" fill="#A41517" mask="url(#b)"/><rect width="1.333" height="4.667" x="9.333" y="8" fill="#A41517" mask="url(#b)"/><path fill="#A41517" d="M6,7.33333333 C6,6.9651435 6.30590057,6.66666667 6.6729126,6.66666667 L7.99375407,6.66666667 C8.36539343,6.66666667 8.66666667,6.96257655 8.66666667,7.33333333 L8.66666667,7.6635437 C8.66666667,7.84936338 8.52329508,8 8.33968099,8 L6.32698568,8 C6.14639647,8 6,7.85730998 6,7.6635437 L6,7.33333333 Z" mask="url(#b)"/></g></svg>