<svg xmlns="http://www.w3.org/2000/svg" xmlns:xlink="http://www.w3.org/1999/xlink" width="28" height="20" viewBox="0 0 28 20"><defs><rect id="a" width="28" height="20" x="0" y="0" rx="2"/><rect id="c" width="22.667" height="14.667" x="0" y="0"/><linearGradient id="e" x1="50%" x2="50%" y1="0%" y2="100%"><stop offset="0%" stop-color="#E21C30"/><stop offset="100%" stop-color="#CE1225"/></linearGradient></defs><g fill="none" fill-rule="evenodd"><mask id="b" fill="#fff"><use xlink:href="#a"/></mask><use xlink:href="#a" fill="#FFF"/><rect width="28" height="20" fill="#E42235" mask="url(#b)"/><g mask="url(#b)"><g transform="translate(2.667 2.667)"><mask id="d" fill="#fff"><use xlink:href="#c"/></mask><use xlink:href="#c" fill="#079B77"/><path fill="#FFD938" d="M1.7265052,7.46513824 C2.10400815,8.06926926 2.64598325,8.46804974 3.15078503,8.57039117 C3.42869756,8.62673402 2.91987048,7.35221286 3.14160185,7.21365972 C3.33079312,7.09543989 4.24105365,8.15532068 4.32076168,7.93419555 C4.50415509,7.42542756 4.3959697,6.70496135 3.98796678,6.05202021 C3.40263413,5.11529215 3.37978324,5.73354964 1.79739746,5.06248303 C1.9628457,6.02216414 1.14117254,6.52841018 1.7265052,7.46513824 L1.7265052,7.46513824 Z" mask="url(#d)"/><path fill="#FFD93B" d="M11.3333333,7.33333333 L22.6666667,14.6666667 L0,14.6666667 L11.3333333,7.33333333 Z M22.6666667,0 L11.3333333,7.33333333 L0,0 L22.6666667,0 Z" mask="url(#d)"/><circle cx="11.333" cy="7.333" r="3.333" fill="url(#e)" mask="url(#d)"/><polygon fill="#FFD938" points="11.333 8.362 9.766 9.491 10.355 7.651 8.797 6.509 10.729 6.501 11.333 4.667 11.938 6.501 13.869 6.509 12.311 7.651 12.901 9.491" mask="url(#d)"/></g></g></g></svg>