<svg xmlns="http://www.w3.org/2000/svg" xmlns:xlink="http://www.w3.org/1999/xlink" width="28" height="20" viewBox="0 0 28 20"><defs><rect id="a" width="28" height="20" x="0" y="0" rx="2"/></defs><g fill="none" fill-rule="evenodd"><mask id="b" fill="#fff"><use xlink:href="#a"/></mask><rect width="27.5" height="19.5" x=".25" y=".25" stroke="#F5F5F5" stroke-width=".5" rx="2"/><path fill="#FF2B37" d="M16,-1.33333333 L15.9996667,7.99966667 L29.3333333,8 L29.3333333,12 L15.9996667,11.9996667 L16,21.3333333 L12,21.3333333 L11.9996667,11.9996667 L-1.33333333,12 L-1.33333333,8 L11.9996667,7.99966667 L12,-1.33333333 L16,-1.33333333 Z" mask="url(#b)"/><path fill="#FD0D1B" d="M22.6666667 2 22.4 3.599 24 3.33333333 24 4.66666667 22.4 4.4 22.6666667 6 21.3333333 6 21.599 4.4 20 4.66666667 20 3.33333333 21.599 3.599 21.3333333 2 22.6666667 2ZM6.66666667 2 6.4 3.599 8 3.33333333 8 4.66666667 6.4 4.4 6.66666667 6 5.33333333 6 5.599 4.4 4 4.66666667 4 3.33333333 5.599 3.599 5.33333333 2 6.66666667 2ZM6.66666667 14 6.4 15.599 8 15.3333333 8 16.6666667 6.4 16.4 6.66666667 18 5.33333333 18 5.599 16.4 4 16.6666667 4 15.3333333 5.599 15.599 5.33333333 14 6.66666667 14ZM22.6666667 14 22.4 15.599 24 15.3333333 24 16.6666667 22.4 16.4 22.6666667 18 21.3333333 18 21.599 16.4 20 16.6666667 20 15.3333333 21.599 15.599 21.3333333 14 22.6666667 14Z" mask="url(#b)"/></g></svg>