<svg xmlns="http://www.w3.org/2000/svg" xmlns:xlink="http://www.w3.org/1999/xlink" width="28" height="20" viewBox="0 0 28 20"><defs><rect id="a" width="28" height="20" x="0" y="0" rx="2"/></defs><g fill="none" fill-rule="evenodd"><mask id="b" fill="#fff"><use xlink:href="#a"/></mask><rect width="27.5" height="19.5" x=".25" y=".25" stroke="#F5F5F5" stroke-width=".5" rx="2"/><rect width="6.667" height="20" x="10.667" fill="#E8112D" mask="url(#b)"/><rect width="28" height="6.667" y="6.667" fill="#E8112D" mask="url(#b)"/><g fill="#F9DD16" mask="url(#b)"><g transform="translate(6.667 2.667)"><rect width="1.333" height="14.667" x="6.667"/><polygon points="7.333 13.333 8.667 14.667 6 14.667"/><rect width="14.667" height="1.333" y="6.667"/><polygon points="7.333 0 8.667 1.333 6 1.333" transform="matrix(1 0 0 -1 0 1.333)"/><polygon points=".667 6.667 2 8 -.667 8" transform="matrix(0 -1 -1 0 8 8)"/><polygon points="14 6.667 15.333 8 12.667 8" transform="rotate(-90 14 7.333)"/></g></g></g></svg>