<svg xmlns="http://www.w3.org/2000/svg" xmlns:xlink="http://www.w3.org/1999/xlink" width="28" height="20" viewBox="0 0 28 20"><defs><rect id="a" width="28" height="20" x="0" y="0" rx="2"/></defs><g fill="none" fill-rule="evenodd"><mask id="b" fill="#fff"><use xlink:href="#a"/></mask><rect width="27.5" height="19.5" x=".25" y=".25" stroke="#F5F5F5" stroke-width=".5" rx="2"/><rect width="28" height="6.667" y="13.333" fill="#EC3938" mask="url(#b)"/><rect width="28" height="6.667" fill="#51B422" mask="url(#b)"/><path fill="#159940" d="M13.420774,11.9089152 C13.5492114,11.775125 13.6542055,11.5135701 13.6551848,11.3422267 L13.6648123,9.65777334 C13.6658365,9.47859007 13.5104167,9.33333333 13.3281123,9.33333333 L13.005221,9.33333333 C12.8182426,9.33333333 12.7712911,9.2287089 12.8989156,9.10108439 L13.7677511,8.23224894 C13.8960186,8.10398139 14.1046244,8.10462443 14.2322489,8.23224894 L15.1010844,9.10108439 C15.2293519,9.22935194 15.1770833,9.33333333 14.994779,9.33333333 L14.6718877,9.33333333 C14.4849093,9.33333333 14.3333333,9.48642985 14.3333333,9.65777334 L14.3333333,11.3422267 C14.3333333,11.5214099 14.4388021,11.7721354 14.5755819,11.9089152 L14.4244181,11.7577515 C14.5582083,11.8915416 14.5239766,12 14.3302104,12 L13.6697896,12 C13.4839699,12 13.4345824,11.8945313 13.5658899,11.7577515 L13.420774,11.9089152 Z" mask="url(#b)"/><polygon fill="#258DE7" points="0 0 9.333 10 0 20" mask="url(#b)"/></g></svg>