<svg xmlns="http://www.w3.org/2000/svg" xmlns:xlink="http://www.w3.org/1999/xlink" width="28" height="20" viewBox="0 0 28 20"><defs><rect id="a" width="28" height="20" x="0" y="0" rx="2"/></defs><g fill="none" fill-rule="evenodd"><mask id="b" fill="#fff"><use xlink:href="#a"/></mask><rect width="27.5" height="19.5" x=".25" y=".25" stroke="#F5F5F5" stroke-width=".5" rx="2"/><path fill="#1C6DC1" d="M0,0 L5.33333333,0 L5.33333333,5.33333333 L0,5.33333333 Z M28,5.33333333 L28,8 L13.3333333,8 L13.3333333,5.33333333 L28,5.33333333 Z M28,0 L28,2.66666667 L13.3333333,2.66666667 L13.3333333,5.33333333 L8,5.33333333 L8,0 L28,0 Z M8,13.3333333 L8,8 L13.3333333,8 L13.3333333,10.6666667 L28,10.6666667 L28,13.3333333 L8,13.3333333 Z M0,16 L28,16 L28,18.6666667 L0,18.6666667 L0,16 Z M0,8 L5.33333333,8 L5.33333333,13.3333333 L0,13.3333333 Z" mask="url(#b)"/></g></svg>