<svg xmlns="http://www.w3.org/2000/svg" xmlns:xlink="http://www.w3.org/1999/xlink" width="28" height="20" viewBox="0 0 28 20"><defs><rect id="a" width="28" height="20" x="0" y="0" rx="2"/><rect id="c" width="9.333" height="8" x="0" y="0" rx=".667"/><linearGradient id="d" x1="50%" x2="50%" y1="0%" y2="100%"><stop offset="0%" stop-color="#FFF"/><stop offset="100%" stop-color="#F0F0F0"/></linearGradient></defs><g fill="none" fill-rule="evenodd"><mask id="b" fill="#fff"><use xlink:href="#a"/></mask><use xlink:href="#a" fill="#FFF"/><rect width="28" height="9.333" fill="#112EBC" mask="url(#b)"/><rect width="28" height="10.667" y="9.333" fill="#E3264A" mask="url(#b)"/><g mask="url(#b)"><g transform="translate(9.333 6.667)"><mask id="e" fill="#fff"><use xlink:href="#c"/></mask><use xlink:href="#c" fill="url(#d)"/><path fill="#AABCAE" stroke="#366C14" stroke-width=".667" d="M5.33472459,5.66666667 C6.02690804,5.66666667 7.09580667,5.92058133 7.71053554,6.22794577 L9,6.872678 L9,7.66666667 L0.333333333,7.66666667 L0.333333333,6.872678 L1.62279779,6.22794577 C2.24274177,5.91797378 3.30066941,5.66666667 3.99860875,5.66666667 Z" mask="url(#e)"/><circle cx="4.667" cy="3.333" r="2" fill="#D4B872" mask="url(#e)"/><path fill="#C28321" stroke="#0D3488" stroke-width=".667" d="M1.666,4.027 L3.93760165,5.84362294 C4.13785935,6.00382909 4.4011529,6.08729926 4.66585395,6.08729926 C4.93342506,6.08729926 5.19794033,6.00185602 5.39573168,5.84362294 L7.631,4.055 L7.66666667,5.99211693 C7.66666667,6.06284448 7.64499042,6.12848622 7.60843616,6.18302715 L7.56717435,6.23364503 C7.50752888,6.29427483 7.42586415,6.33333333 7.33640162,6.33333333 L1.99693171,6.33333333 C1.90678044,6.33333333 1.82573149,6.29463842 1.7666888,6.23462135 C1.7051338,6.17205051 1.66666667,6.08598526 1.66666667,5.99211693 L1.666,4.027 Z" mask="url(#e)"/><path fill="#216C30" d="M2.8960921,1.56275876 C2.76938393,1.4360506 2.81858699,1.33333333 3.00770442,1.33333333 L6.32562892,1.33333333 C6.51397886,1.33333333 6.55913798,1.44086202 6.43724124,1.56275876 L4.8960921,3.1039079 C4.76938393,3.23061607 4.55913798,3.22580465 4.43724124,3.1039079 L2.8960921,1.56275876 Z" mask="url(#e)"/></g></g></g></svg>