<svg xmlns="http://www.w3.org/2000/svg" xmlns:xlink="http://www.w3.org/1999/xlink" width="28" height="20" viewBox="0 0 28 20"><defs><rect id="a" width="28" height="20" x="0" y="0" rx="2"/></defs><g fill="none" fill-rule="evenodd"><mask id="b" fill="#fff"><use xlink:href="#a"/></mask><rect width="27.5" height="19.5" x=".25" y=".25" stroke="#F5F5F5" stroke-width=".5" rx="2"/><rect width="28" height="6.667" fill="#DF1E35" mask="url(#b)"/><rect width="28" height="6.667" y="13.333" fill="#262626" mask="url(#b)"/><path fill="#0F7A40" d="M18.6666667 8.34103775C18.6666667 8.1526878 18.7993863 8.06635984 18.9625765 8.14795494L19.7040901 8.51871173C19.8675166 8.60042498 20 8.80989583 20 8.99846586L20 11.6682008C20 11.8514484 19.85731 12 19.6635437 12L19.003123 12C18.8173033 12 18.6666667 11.8480797 18.6666667 11.6589622L18.6666667 8.34103775ZM10.6666667 8.34103775C10.6666667 8.1526878 10.7993863 8.06635984 10.9625765 8.14795494L11.7040901 8.51871173C11.8675166 8.60042498 12 8.80989583 12 8.99846586L12 11.6682008C12 11.8514484 11.85731 12 11.6635437 12L11.003123 12C10.8173033 12 10.6666667 11.8480797 10.6666667 11.6589622L10.6666667 8.34103775ZM16 8.99846586C16 8.81521822 16.1327197 8.60030683 16.2959099 8.51871173L17.0374235 8.14795494C17.20085 8.06624168 17.3333333 8.15192032 17.3333333 8.34103775L17.3333333 11.6589622C17.3333333 11.8473122 17.1906433 12 16.996877 12L16.3364563 12C16.1506366 12 16 11.8567708 16 11.6682008L16 8.99846586Z" mask="url(#b)"/><path fill="#0F7A40" d="M13.3333333 10.3302593C13.3333333 10.1478621 13.466053 9.93364016 13.6292432 9.85204506L14.3707568 9.48128827C14.5341833 9.39957502 14.6666667 9.48241364 14.6666667 9.67055088L14.6666667 10.7263792 16.6666667 10.7263792 16.6666667 12 14.996926 12C14.8145288 12 14.5239766 12 14.3302104 12L13.6697896 12C13.4839699 12 13.3333333 11.8430634 13.3333333 11.6697407L13.3333333 10.3302593ZM8 10.3302593C8 10.1478621 8.13271968 9.93364016 8.29590988 9.85204506L9.03742345 9.48128827C9.20084997 9.39957502 9.33333333 9.48241364 9.33333333 9.67055088L9.33333333 10.7263792 11.3333333 10.7263792 11.3333333 12 9.66359266 12C9.48119547 12 9.19064331 12 8.99687703 12L8.3364563 12C8.15063662 12 8 11.8430634 8 11.6697407L8 10.3302593Z" mask="url(#b)"/></g></svg>