<svg xmlns="http://www.w3.org/2000/svg" xmlns:xlink="http://www.w3.org/1999/xlink" width="28" height="20" viewBox="0 0 28 20"><defs><rect id="a" width="28" height="20" x="0" y="0" rx="2"/><path id="c" d="M0.666666667,3.83333333 L0.666666667,2.67435201 C0.666666667,1.93372785 1.25688044,1.33333333 1.99860875,1.33333333 L3.33472459,1.33333333 C4.07033588,1.33333333 4.66666667,1.9209166 4.66666667,2.67435201 L4.66666667,3.83333333 C4.66666667,5.61904762 2.66666667,6.33333333 2.66666667,6.33333333 C2.66666667,6.33333333 0.666666667,5.61904762 0.666666667,3.83333333 Z"/></defs><g fill="none" fill-rule="evenodd"><mask id="b" fill="#fff"><use xlink:href="#a"/></mask><rect width="27.5" height="19.5" x=".25" y=".25" stroke="#F5F5F5" stroke-width=".5" rx="2"/><rect width="2.667" height="49.333" x="13.326" y="-14.193" fill="#E3243B" mask="url(#b)" transform="rotate(-55 14.659 10.473)"/><rect width="2.667" height="49.333" x="13.326" y="-14.193" fill="#E3243B" mask="url(#b)" transform="scale(-1 1) rotate(-55 0 38.633)"/><g mask="url(#b)"><g transform="translate(12 1.333)"><path fill="#FAEF32" d="M3.54383226,0 L3.36444772,0.854754367 L4.64028925,0.712295322 L3.65347796,1.28213158 L3.74004409,1.333 L1.59204409,1.333 L1.67985538,1.28213158 L0.693044087,0.712295303 L1.96888566,0.854754367 L1.78950107,0 L2.66666666,0.712295303 L3.54383226,0 Z"/><mask id="d" fill="#fff"><use xlink:href="#c"/></mask><use xlink:href="#c" fill="#E3243B"/><rect width="1" height="1" x="2.333" y="5.333" fill="#FAEF32" mask="url(#d)" rx=".5"/><rect width="2.667" height="1" x="1.333" y="4" fill="#FAEF32" mask="url(#d)" rx=".5"/><rect width="2.667" height="1" x="1.333" y="2.667" fill="#FAEF32" mask="url(#d)" rx=".5"/></g></g></g></svg>