<svg xmlns="http://www.w3.org/2000/svg" xmlns:xlink="http://www.w3.org/1999/xlink" width="28" height="20" viewBox="0 0 28 20"><defs><rect id="a" width="28" height="20" x="0" y="0" rx="2"/></defs><g fill="none" fill-rule="evenodd"><mask id="b" fill="#fff"><use xlink:href="#a"/></mask><use xlink:href="#a" fill="#FFF"/><rect width="28" height="5.333" fill="#0F3EB6" mask="url(#b)"/><rect width="28" height="5.333" y="14.667" fill="#0F3EB6" mask="url(#b)"/><rect width="28" height="9.333" y="5.333" fill="#ED1A3C" mask="url(#b)"/><path fill="#FFF" d="M10,10.6666667 L11.3333333,10.6666667 L11.3333333,13.3333333 L8.66666667,13.3333333 L10,10.6666667 Z M12,10.6666667 L16,10.6666667 L16,13.3333333 L12,13.3333333 L12,10.6666667 Z M16.6666667,10.6666667 L18,10.6666667 L19.3333333,13.3333333 L16.6666667,13.3333333 L16.6666667,10.6666667 Z M16.6666667,8.66597104 C16.6666667,8.29816539 16.9625765,8 17.3333333,8 L17.3333333,8 C17.7015232,8 18,8.29510689 18,8.66597104 L18,10 L16.6666667,10 L16.6666667,8.66597104 Z M12,8.72721354 L13.3333333,8.72721354 L13.3333333,7.997615 C13.3333333,7.63074237 13.6292432,7.33333333 14,7.33333333 L14,7.33333333 C14.3681898,7.33333333 14.6666667,7.62893947 14.6666667,7.997615 L14.6666667,8.72721354 L16,8.72721354 L16,10 L12,10 L12,8.72721354 Z M10,8.66597104 C10,8.29816539 10.2959099,8 10.6666667,8 L10.6666667,8 C11.0348565,8 11.3333333,8.29510689 11.3333333,8.66597104 L11.3333333,10 L10,10 L10,8.66597104 Z" mask="url(#b)"/></g></svg>