<svg xmlns="http://www.w3.org/2000/svg" xmlns:xlink="http://www.w3.org/1999/xlink" width="28" height="20" viewBox="0 0 28 20"><defs><rect id="a" width="28" height="20" x="0" y="0" rx="2"/></defs><g fill="none" fill-rule="evenodd"><mask id="b" fill="#fff"><use xlink:href="#a"/></mask><rect width="27.5" height="19.5" x=".25" y=".25" stroke="#F5F5F5" stroke-width=".5" rx="2"/><rect width="28" height="5.333" fill="#FFCB49" mask="url(#b)"/><rect width="28" height="5.333" y="9.333" fill="#DC1D34" mask="url(#b)"/><rect width="28" height="5.333" y="14.667" fill="#4985D4" mask="url(#b)"/><polygon fill="#4BA343" points="0 20 13.333 10 0 0" mask="url(#b)"/><path fill="#FFF" d="M5.33333333,6 C5.67890708,6 6.01424554,6.04382251 6.33409467,6.12621352 C4.60822606,6.56991294 3.33333333,8.13607289 3.33333333,10 C3.33333333,11.8639271 4.60822606,13.4300871 6.33357681,13.8740452 C6.01424554,13.9561775 5.67890708,14 5.33333333,14 C3.12419433,14 1.33333333,12.209139 1.33333333,10 C1.33333333,7.790861 3.12419433,6 5.33333333,6 Z M7.33333333,12 C7.70152317,12 8,12.2984768 8,12.6666667 C8,13.0348565 7.70152317,13.3333333 7.33333333,13.3333333 C6.9651435,13.3333333 6.66666667,13.0348565 6.66666667,12.6666667 C6.66666667,12.2984768 6.9651435,12 7.33333333,12 Z M7.33333333,9.33333333 C7.70152317,9.33333333 8,9.63181017 8,10 C8,10.3681898 7.70152317,10.6666667 7.33333333,10.6666667 C6.9651435,10.6666667 6.66666667,10.3681898 6.66666667,10 C6.66666667,9.63181017 6.9651435,9.33333333 7.33333333,9.33333333 Z M7.33333333,6.66666667 C7.70152317,6.66666667 8,6.9651435 8,7.33333333 C8,7.70152317 7.70152317,8 7.33333333,8 C6.9651435,8 6.66666667,7.70152317 6.66666667,7.33333333 C6.66666667,6.9651435 6.9651435,6.66666667 7.33333333,6.66666667 Z" mask="url(#b)"/></g></svg>