<svg xmlns="http://www.w3.org/2000/svg" xmlns:xlink="http://www.w3.org/1999/xlink" width="28" height="20" viewBox="0 0 28 20"><defs><rect id="a" width="28" height="20" x="0" y="0" rx="2"/></defs><g fill="none" fill-rule="evenodd"><mask id="b" fill="#fff"><use xlink:href="#a"/></mask><use xlink:href="#a" fill="#FFF"/><polygon fill="#1EC160" points="0 13.333 28 0 0 0" mask="url(#b)"/><polygon fill="#DF2A40" points="0 20 28 20 28 6.667" mask="url(#b)"/><polygon fill="#FFD956" points=".784 25.333 33.575 4.843 27.216 -5.333 -5.575 15.157" mask="url(#b)"/><polygon fill="#262626" points="-.629 23.072 32.162 2.582 28.629 -3.072 -4.162 17.418" mask="url(#b)"/><polygon fill="#FFF" points="20.309 7.797 19.364 9.295 18.751 7.634 17.034 7.197 18.425 6.1 18.309 4.333 19.782 5.317 21.427 4.661 20.947 6.366 22.079 7.727" mask="url(#b)"/><polygon fill="#FFF" points="9.643 14.264 8.697 15.761 8.084 14.1 6.368 13.664 7.758 12.567 7.643 10.8 9.115 11.783 10.76 11.128 10.28 12.832 11.412 14.194" mask="url(#b)"/></g></svg>