<svg xmlns="http://www.w3.org/2000/svg" xmlns:xlink="http://www.w3.org/1999/xlink" width="28" height="20" viewBox="0 0 28 20"><defs><rect id="a" width="28" height="20" x="0" y="0" rx="2"/></defs><g fill="none" fill-rule="evenodd"><mask id="b" fill="#fff"><use xlink:href="#a"/></mask><use xlink:href="#a" fill="#FFF"/><rect width="28" height="4" fill="#1461B6" mask="url(#b)"/><rect width="28" height="4" y="16" fill="#1461B6" mask="url(#b)"/><rect width="28" height="12" y="4" fill="#FFF" mask="url(#b)"/><rect width="28" height="9.333" y="5.333" fill="#F53846" mask="url(#b)"/><path fill="#FFF" d="M10,6.66666667 L9.21379109,8.91787628 L6.82981161,8.96994335 L8.72788727,10.4133345 L8.04071583,12.6967233 L10,11.3375785 L11.9587591,12.6973964 C11.4088845,13.097386 10.7319965,13.3333333 10,13.3333333 C8.15905083,13.3333333 6.66666667,11.8409492 6.66666667,10 C6.66666667,8.15905083 8.15905083,6.66666667 10,6.66666667 Z M10,6.66666667 C11.8409492,6.66666667 13.3333333,8.15905083 13.3333333,10 C13.3333333,11.1085144 12.7922306,12.0906475 11.9597467,12.6966777 L11.2721127,10.4133345 L13.1701884,8.96994335 L10.7862089,8.91787628 Z" mask="url(#b)"/></g></svg>