<svg xmlns="http://www.w3.org/2000/svg" xmlns:xlink="http://www.w3.org/1999/xlink" width="28" height="20" viewBox="0 0 28 20"><defs><rect id="a" width="28" height="20" x="0" y="0" rx="2"/></defs><g fill="none" fill-rule="evenodd"><mask id="b" fill="#fff"><use xlink:href="#a"/></mask><use xlink:href="#a" fill="#FFF"/><rect width="28" height="20" fill="#FFBF19" mask="url(#b)"/><path fill="#A52531" d="M10.6666667,1.33333333 L25.3300356,1.33333333 C26.0682366,1.33333333 26.6666667,1.9299859 26.6666667,2.66466977 L26.6666667,17.3353302 C26.6666667,18.070607 26.0782427,18.6666667 25.3300356,18.6666667 L10.6666667,18.6666667 L10.6666667,1.33333333 Z" mask="url(#b)"/><path fill="#03664F" d="M1.33333333,2.66466977 C1.33333333,1.92939296 1.92354711,1.33333333 2.66527541,1.33333333 L5.33333333,1.33333333 L5.33333333,18.6666667 L2.66527541,18.6666667 C1.92966412,18.6666667 1.33333333,18.0700141 1.33333333,17.3353302 L1.33333333,2.66466977 Z" mask="url(#b)"/><rect width="4" height="17.333" x="5.333" y="1.333" fill="#FF6816" mask="url(#b)" rx=".667"/><path fill="#FFBF18" d="M12.6666667 4C13.0348565 4 13.3333333 3.70152317 13.3333333 3.33333333 13.3333333 2.9651435 13.0348565 2.66666667 12.6666667 2.66666667L12 2.66666667 12 3.33333333C12 3.70152317 12.2984768 4 12.6666667 4ZM24.6666667 4C24.2984768 4 24 3.70152317 24 3.33333333 24 2.9651435 24.2984768 2.66666667 24.6666667 2.66666667L25.3333333 2.66666667 25.3333333 3.33333333C25.3333333 3.70152317 25.0348565 4 24.6666667 4ZM24.6666667 16C24.2984768 16 24 16.2984768 24 16.6666667 24 17.0348565 24.2984768 17.3333333 24.6666667 17.3333333L25.3333333 17.3333333 25.3333333 16.6666667C25.3333333 16.2984768 25.0348565 16 24.6666667 16ZM12.6666667 16C13.0348565 16 13.3333333 16.2984768 13.3333333 16.6666667 13.3333333 17.0348565 13.0348565 17.3333333 12.6666667 17.3333333L12 17.3333333 12 16.6666667C12 16.2984768 12.2984768 16 12.6666667 16ZM15.9999999 12.6666667C15.9999999 12.2984768 15.6978759 12 15.3333333 12L15.9999999 12C15.6318101 12 15.0552419 11.8987198 14.711484 11.7586478 14.711484 11.7586478 13.3333333 11.3333332 13.3333333 10.6666667 13.3333333 10.0000001 13.5968177 9.86018091 13.5968177 9.86018091 13.8194891 9.56921103 13.8904894 9.06342576 13.7580933 8.71194274 13.7580933 8.71194274 13.2000738 7.46622373 13.3333333 6.66666667 13.4665928 5.86710961 14.0943659 5.66800808 14.0943659 5.66800808 14.4104389 5.48317232 14.6666667 5.63398345 14.6666667 5.99385198L14.6666667 8.67281469C14.6666667 9.03760906 14.9364866 9.46824328 15.2709147 9.63545736L15.395752 9.69787598C15.7294689 9.86473447 16.2109375 9.7890625 16.4702504 9.52974955L16.1964162 9.80358378C16.4561284 9.54387163 16.3968468 9.19842339 16.0624186 9.03120931L15.3333333 8.66666667 15.3333333 8 16 8C16.3681898 8 16.3968468 7.86509005 16.0624186 7.69787598L15.3333333 7.33333333 15.3333333 6.66666667 16 6.66666667C16.3681898 6.66666667 16.8776042 6.45572917 17.1369171 6.19641622L16.8630829 6.47025045C17.122795 6.2105383 17.6292432 6 18 6L18 6C18.3681898 6 18.8015766 6.2698199 18.9687907 6.60424805L19.0312093 6.72908529C19.1980678 7.06280227 19.2406362 7.61142476 19.1223958 7.96614583L18.8776042 8.70052083C18.7611066 9.05001353 18.9742839 9.33333333 19.3412164 9.33333333L21.3254503 9.33333333C21.6979938 9.33333333 22.2109375 9.12239583 22.4702504 8.86308289L22.1964162 9.13691711C22.4561284 8.87720496 22.3968468 8.53175672 22.0624186 8.36454264L21.9375814 8.30212402C21.6038644 8.13526553 21.0374235 8 20.6666667 8L20.6666667 8C20.2984768 8 20 7.70409012 20 7.33333333L20 7.33333333C20 6.9651435 20.2109375 6.45572917 20.4702504 6.19641622L20.6666667 6 20.6666667 6.66666667C20.6666667 7.0348565 20.9687907 7.33333333 21.3333333 7.33333333L20.6666667 7.33333333C21.0348565 7.33333333 21.6292432 7.33333333 22 7.33333333L22 7.33333333C22.3681898 7.33333333 22.8015766 7.60315323 22.9687907 7.93758138L23.0312093 8.06241862C23.1980678 8.3961356 23.3595957 8.95950323 23.3828027 9.32569204 23.3828027 9.32569204 23.4745979 9.96034366 23.3333333 10.6666667 23.1920687 11.3729897 23.031956 11.4515072 23.031956 11.4515072 22.8302123 11.7544314 22.6666667 12.3059006 22.6666667 12.6729126L22.6666667 13.9937541C22.6666667 14.3653934 22.3707568 14.6666667 22 14.6666667L22 14.6666667C21.6318102 14.6666667 21.4682433 14.3968468 21.6354574 14.0624186L21.697876 13.9375814C21.8647345 13.6038644 21.8650901 13.0635134 21.697876 12.7290853L21.6354574 12.604248C21.4685989 12.2705311 21.3333333 12.2959099 21.3333333 12.6666667L21.3333333 12.6666667C21.3333333 13.0348565 21.1984234 13.6031532 21.0312093 13.9375814L20.9687907 14.0624186C20.8019322 14.3961356 20.3707568 14.6666667 20 14.6666667L20 14.6666667C19.6318102 14.6666667 19.4682433 14.3968468 19.6354574 14.0624186L19.697876 13.9375814C19.8647345 13.6038644 20.0000001 13.0374235 20.0000001 12.6666667L20.0000001 12.6666667C20.0000002 12.2984768 19.6940996 12 19.3270876 12L18.0062459 12C17.6346065 12 17.3333333 12.2959099 17.3333333 12.6666667L17.3333333 12.6666667C17.3333333 13.0348565 17.1984233 13.6031532 17.0312092 13.9375814L16.9687906 14.0624186C16.8019321 14.3961356 16.3707567 14.6666667 15.9999999 14.6666667L15.9999999 14.6666667C15.6318101 14.6666667 15.4682432 14.3968468 15.6354573 14.0624186L15.6978759 13.9375814C15.8647344 13.6038644 15.9999999 13.0374235 15.9999999 12.6666667L15.9999999 12.6666667Z" mask="url(#b)"/></g></svg>