<svg xmlns="http://www.w3.org/2000/svg" xmlns:xlink="http://www.w3.org/1999/xlink" width="28" height="20" viewBox="0 0 28 20"><defs><rect id="a" width="28" height="20" x="0" y="0" rx="2"/></defs><g fill="none" fill-rule="evenodd"><mask id="b" fill="#fff"><use xlink:href="#a"/></mask><rect width="27.5" height="19.5" x=".25" y=".25" stroke="#F5F5F5" stroke-width=".5" rx="2"/><path fill="#E1244A" d="M13.3333333,0 L28,0 L28,2.66666667 L13.3333333,2.66666667 Z M13.3333333,5.33333333 L28,5.33333333 L28,8 L13.3333333,8 Z M13.3333333,10.6666667 L28,10.6666667 L28,13.3333333 L13.3333333,13.3333333 Z M0,16 L28,16 L28,18.6666667 L0,18.6666667 L0,16 Z" mask="url(#b)"/><rect width="13.333" height="13.333" fill="#0C3F8E" mask="url(#b)"/><polygon fill="#FFF" points="6.667 8.227 4.316 9.903 5.183 7.149 2.862 5.431 5.75 5.405 6.667 2.667 7.584 5.405 10.471 5.431 8.15 7.149 9.018 9.903" mask="url(#b)"/></g></svg>