<svg xmlns="http://www.w3.org/2000/svg" xmlns:xlink="http://www.w3.org/1999/xlink" width="28" height="20" viewBox="0 0 28 20"><defs><rect id="a" width="28" height="20" x="0" y="0" rx="2"/></defs><g fill="none" fill-rule="evenodd"><mask id="b" fill="#fff"><use xlink:href="#a"/></mask><rect width="27.5" height="19.5" x=".25" y=".25" stroke="#F5F5F5" stroke-width=".5" rx="2"/><rect width="28" height="6.667" fill="#0C33B8" mask="url(#b)"/><rect width="28" height="6.667" y="13.333" fill="#1DB158" mask="url(#b)"/><path fill="#262626" d="M13.3333333,9.99999999 L13.7890625,8.6328125 C13.9055601,8.28331981 14.0926971,8.27809142 14.2109375,8.63281248 L14.6666667,9.99999992 L15.8146057,11.7219086 C15.9169962,11.8754942 15.8901367,12.0926971 15.7416992,12.1964162 C15.7416992,12.1964162 15.3333333,12.6666667 14,12.6666667 C12.6666667,12.6666667 12.2583008,12.1964162 12.2583008,12.1964162 C12.1156452,12.0879385 12.0874837,11.8687744 12.1853943,11.7219086 L13.3333333,9.99999999 Z" mask="url(#b)"/><circle cx="14" cy="8.667" r="1" stroke="#262626" stroke-width=".667" mask="url(#b)"/></g></svg>