<svg xmlns="http://www.w3.org/2000/svg" xmlns:xlink="http://www.w3.org/1999/xlink" width="28" height="20" viewBox="0 0 28 20"><defs><rect id="a" width="28" height="20" x="0" y="0" rx="2"/><rect id="c" width="28" height="6.667" x="0" y="6.667"/><rect id="e" width="28" height="6.667" x="0" y="13.333"/><filter id="d" width="110.7%" height="145%" x="-5.4%" y="-22.5%" filterUnits="objectBoundingBox"><feMorphology in="SourceAlpha" operator="dilate" radius=".5" result="shadowSpreadOuter1"/><feOffset in="shadowSpreadOuter1" result="shadowOffsetOuter1"/><feColorMatrix in="shadowOffsetOuter1" values="0 0 0 0 0 0 0 0 0 0 0 0 0 0 0 0 0 0 0.06 0"/></filter><filter id="f" width="110.7%" height="145%" x="-5.4%" y="-22.5%" filterUnits="objectBoundingBox"><feMorphology in="SourceAlpha" operator="dilate" radius=".5" result="shadowSpreadOuter1"/><feOffset in="shadowSpreadOuter1" result="shadowOffsetOuter1"/><feColorMatrix in="shadowOffsetOuter1" values="0 0 0 0 0 0 0 0 0 0 0 0 0 0 0 0 0 0 0.06 0"/></filter></defs><g fill="none" fill-rule="evenodd"><mask id="b" fill="#fff"><use xlink:href="#a"/></mask><use xlink:href="#a" fill="#FFF"/><g mask="url(#b)"><use xlink:href="#c" fill="#000" filter="url(#d)"/><use xlink:href="#c" fill="#262626"/></g><g mask="url(#b)"><use xlink:href="#e" fill="#000" filter="url(#f)"/><use xlink:href="#e" fill="#34B857"/></g><rect width="28" height="6.667" fill="#F41F34" mask="url(#b)"/><path fill="#FFF" d="M14,8 C14.4113508,8 14.7936966,8.12418541 15.1115914,8.33711027 C15.0750684,8.33458375 15.0376802,8.33333333 15,8.33333333 C14.0795254,8.33333333 13.3333333,9.07952542 13.3333333,10 C13.3333333,10.9204746 14.0795254,11.6666667 15,11.6666667 L15.1115914,11.6628897 C14.7936966,11.8758146 14.4113508,12 14,12 C12.8954305,12 12,11.1045695 12,10 C12,8.8954305 12.8954305,8 14,8 Z M15.3333333,9.33333333 C15.7015232,9.33333333 16,9.63181017 16,10 C16,10.3681898 15.7015232,10.6666667 15.3333333,10.6666667 C14.9651435,10.6666667 14.6666667,10.3681898 14.6666667,10 C14.6666667,9.63181017 14.9651435,9.33333333 15.3333333,9.33333333 Z" mask="url(#b)"/></g></svg>