<svg xmlns="http://www.w3.org/2000/svg" xmlns:xlink="http://www.w3.org/1999/xlink" width="28" height="20" viewBox="0 0 28 20"><defs><rect id="a" width="28" height="20" x="0" y="0" rx="2"/></defs><g fill="none" fill-rule="evenodd"><mask id="b" fill="#fff"><use xlink:href="#a"/></mask><use xlink:href="#a" fill="#FFF"/><rect width="28" height="20" fill="#E6BE53" mask="url(#b)"/><rect width="25.333" height="17.333" x="1.333" y="1.333" fill="#E01826" mask="url(#b)" rx="1"/><path fill="#E6BE53" d="M9.49471474,4.64552561 L9.8386186,6.02114105 C9.92774708,6.377655 10.1349099,6.93648656 10.302124,7.27091471 L10.3645426,7.39575195 C10.5075642,7.68179508 10.7823491,8.07639039 11.0212394,8.34659341 L11.1303333,8.4642429 L10.8630829,8.19641622 C11.122795,8.45612837 11.1223958,8.87760417 10.8630829,9.13691711 L11.1369171,8.86308289 C10.877205,9.12279504 10.9364866,9.46824328 11.2709147,9.63545736 L11.395752,9.69787598 C11.7294689,9.86473447 12,9.69787598 12,9.34082031 L12,9.99251302 C12,9.62845813 12.1349099,9.06351344 12.302124,8.72908529 L12.3645426,8.60424805 C12.5314011,8.27053107 12.4583333,7.79166667 12.2003314,7.5336647 L11.7996686,7.13300196 C11.6966487,7.02998201 11.567681,6.90101438 11.433411,6.76674437 L11.1303333,6.4632429 L11.0739625,6.3974925 C10.8902574,6.14920253 10.9668891,5.84988877 11.2709147,5.69787598 L11.395752,5.63545736 C11.7294689,5.46859887 12.2083333,5.54166667 12.4663353,5.79966863 L12.866998,6.20033137 C12.970018,6.30335132 13.0989856,6.43231896 13.2332556,6.56658897 L13.6313275,6.96466081 L13.7243333,7.0572429 L13.5297496,6.86308289 C13.7894617,7.12279504 14.2109375,7.12239583 14.4702504,6.86308289 L14.3063333,7.0262429 L15.5336647,5.79966863 C15.7912146,5.54211876 16.2698199,5.46824328 16.604248,5.63545736 L16.7290853,5.69787598 C17.0628023,5.86473447 17.1223958,6.2109375 16.8630829,6.47025045 L16.3718767,6.96145666 C16.3099669,7.02336639 16.2519318,7.08140157 16.2003314,7.13300196 L15.7996686,7.5336647 C15.5421188,7.79121458 15.4682433,8.2698199 15.6354574,8.60424805 L15.697876,8.72908529 C15.8647345,9.06280227 16,9.63545736 16,9.99251302 L16,9.34082031 C16,9.7048752 16.2698199,9.86509005 16.604248,9.69787598 L16.7290853,9.63545736 C17.0628023,9.46859887 17.1223958,9.12239583 16.8630829,8.86308289 L17.1369171,9.13691711 C16.877205,8.87720496 16.8776042,8.45572917 17.1369171,8.19641622 L16.8683333,8.4642429 L16.9788676,8.34650503 C17.2178571,8.07627126 17.492131,7.68240465 17.6354574,7.39575195 L17.697876,7.27091471 C17.8647345,6.93719773 18.071345,6.38128662 18.1613814,6.02114105 L18.5052853,4.64552561 C18.5944138,4.28901166 18.851237,4.24609375 19.0713965,4.53963979 L20.2619368,6.12702688 C20.4854629,6.4250617 20.6666667,6.97256724 20.6666667,7.33957926 L20.6666667,8.66042074 C20.6666667,9.0320601 20.5317567,9.60315323 20.3645426,9.93758138 L20.302124,10.0624186 C20.1352655,10.3961356 19.7916667,10.875 19.5336647,11.133002 L19.133002,11.5336647 C18.8754521,11.7912146 18.3968468,12.1349099 18.0624186,12.302124 L17.9375814,12.3645426 C17.6515383,12.5075642 17.1945143,12.6273746 16.8362941,12.6586874 L16.6666667,12.6666667 C16.2984768,12.6666667 16.2698199,12.8015766 16.604248,12.9687907 L16.7290853,13.0312093 C17.0628023,13.1980678 17.5442708,13.5442708 17.8035838,13.8035838 L17.5297496,13.5297496 C17.7894617,13.7894617 18.2109375,13.7890625 18.4702504,13.5297496 L18.1964162,13.8035838 C18.4041859,13.5958141 18.7154844,13.5545156 18.9644612,13.6790752 L18.9823333,13.6892429 L19.0083078,13.7315565 C19.1444154,13.9957478 19.1612647,14.3441373 19.0312093,14.604248 L18.9687907,14.7290853 C18.818618,15.0294306 18.4543487,15.2785953 18.1127149,15.3254247 L18,15.3333333 C17.6318102,15.3333333 17.0635134,15.1984234 16.7290853,15.0312093 L16.604248,14.9687907 C16.2705311,14.8019322 15.8650901,14.3968468 15.697876,14.0624186 L15.6354574,13.9375814 C15.5141057,13.6948781 15.2978942,13.5971658 15.089236,13.6616712 L15.0163333,13.6912429 L14.9956684,13.7280905 C14.8685374,13.9843995 14.874792,14.312188 15.0310059,14.5465088 L15.6356608,15.4534912 C15.8368798,15.7553197 15.7547607,16.1634928 15.4534912,16.3643392 L14.5465088,16.9689941 C14.2446803,17.1702131 13.7547607,17.1698405 13.4534912,16.9689941 L12.5465088,16.3643392 C12.2446803,16.1631202 12.1634928,15.7547607 12.3643392,15.4534912 L12.9689941,14.5465088 C13.1254978,14.3117533 13.1313499,13.9839648 13.0042135,13.7278651 L12.9813333,13.6902429 L12.9106489,13.661383 C12.7020357,13.5966725 12.4861529,13.6943609 12.3645426,13.9375814 L12.302124,14.0624186 C12.1352655,14.3961356 11.7301801,14.8015766 11.395752,14.9687907 L11.2709147,15.0312093 C10.9848716,15.1742309 10.5278476,15.2940413 10.1696274,15.325354 L10,15.3333333 C9.63181017,15.3333333 9.19842339,15.0635134 9.03120931,14.7290853 L8.96879069,14.604248 C8.83901186,14.3446904 8.85594899,13.9957522 8.99189414,13.7314775 L9.01633333,13.6892429 L9.0357304,13.6789603 C9.28489884,13.5543879 9.59613342,13.5961334 9.80358378,13.8035838 L9.52974955,13.5297496 C9.7894617,13.7894617 10.2109375,13.7890625 10.4702504,13.5297496 L10.1964162,13.8035838 C10.4561284,13.5438716 10.9364866,13.1984234 11.2709147,13.0312093 L11.395752,12.9687907 C11.7016592,12.8158371 11.7058262,12.6894303 11.4188192,12.6694247 L11.3333333,12.6666667 C10.9651435,12.6666667 10.3968468,12.5317567 10.0624186,12.3645426 L9.93758138,12.302124 C9.6038644,12.1352655 9.125,11.7916667 8.86699804,11.5336647 L8.4663353,11.133002 C8.20878542,10.8754521 7.86509005,10.3968468 7.69787598,10.0624186 L7.63545736,9.93758138 C7.46859887,9.6038644 7.33333333,9.02743276 7.33333333,8.66042074 L7.33333333,7.33957926 C7.33333333,6.9679399 7.51790365,6.42057292 7.73806318,6.12702688 L8.92860349,4.53963979 C9.15212961,4.24160496 9.40467834,4.28538005 9.49471474,4.64552561 Z M14.6328125,3.54427083 L15.3671875,3.7890625 C15.7166802,3.90556006 15.7916667,4.20833333 15.5336647,4.4663353 L15.133002,4.86699804 C14.9040687,5.09593126 14.4798601,5.28633454 14.1280235,5.32582005 L14,5.33333333 C13.6318102,5.33333333 13.125,5.125 12.866998,4.86699804 L12.4663353,4.4663353 C12.2087854,4.20878542 12.2780914,3.90730286 12.6328125,3.7890625 L13.3671875,3.54427083 C13.7166802,3.42777327 14.2780914,3.42603048 14.6328125,3.54427083 Z" mask="url(#b)"/><path fill="#215F90" d="M12.6666667,12.0076569 C12.6666667,12.371618 12.7679469,12.3885752 12.9080188,12.0448174 C12.9080188,12.0448174 13.3333333,10.6666667 14,10.6666667 C14.6666667,10.6666667 15.0966845,12.0557334 15.0966845,12.0557334 C15.227382,12.3931425 15.3333333,12.370897 15.3333333,11.9928623 L15.3333333,11.3333333 C15.3333333,10.2287638 14.7363797,9.33333333 14,9.33333333 C13.2636203,9.33333333 12.6666667,10.2287638 12.6666667,11.3333333 L12.6666667,12.0076569 Z" mask="url(#b)"/></g></svg>