<svg xmlns="http://www.w3.org/2000/svg" xmlns:xlink="http://www.w3.org/1999/xlink" width="28" height="20" viewBox="0 0 28 20"><defs><rect id="a" width="28" height="20" x="0" y="0" rx="2"/></defs><g fill="none" fill-rule="evenodd"><mask id="b" fill="#fff"><use xlink:href="#a"/></mask><use xlink:href="#a" fill="#FFF"/><rect width="28" height="20" fill="#E81B26" mask="url(#b)"/><circle cx="14" cy="10" r="3.333" fill="#FFE94F" mask="url(#b)"/><path fill="#FFE94F" d="M10.8980108,13.4865309 L1.96165435,23.5306406 L-0.714868071,20.5580613 L10.2079601,12.7205702 C10.4092984,13.0007078 10.6409116,13.2576242 10.8980108,13.4865309 Z M17.7920399,12.7205702 L28.7148681,20.5580613 L26.0383456,23.5306406 L17.1019892,13.4865309 C17.3590884,13.2576242 17.5907016,13.0007078 17.7920399,12.7205702 Z M14.9150306,14.5769934 L16,20 L12,20 L13.0839698,14.5767945 C13.3801701,14.6357484 13.6864744,14.6666667 14,14.6666667 C14.313173,14.6666667 14.6191408,14.6358179 14.9150306,14.5769934 Z M0,8 L9.37969414,9.33964512 C9.34913812,9.55536964 9.33333333,9.77583912 9.33333333,10 C9.33333333,10.2241609 9.34913812,10.4446304 9.37969414,10.6603549 L0,12 L0,8 Z M28,8 L28,12 L18.6203059,10.6603549 C18.6508619,10.4446304 18.6666667,10.2241609 18.6666667,10 C18.6666667,9.77583912 18.6508619,9.55536964 18.6203059,9.33964512 L28,8 Z M1.96165435,-3.53064057 L10.8980108,6.51346912 C10.6409116,6.74237577 10.4092984,6.99929219 10.2079601,7.27942976 L-0.714868071,-0.558061264 L1.96165435,-3.53064057 Z M26.0383456,-3.53064057 L28.7148681,-0.558061264 L17.7920399,7.27942976 C17.5907016,6.99929219 17.3590884,6.74237577 17.1019892,6.51346912 L26.0383456,-3.53064057 Z M16,-3.95239397e-14 L14.9150306,5.42300662 C14.6191408,5.36418208 14.313173,5.33333333 14,5.33333333 C13.6864744,5.33333333 13.3801701,5.3642516 13.0839698,5.42320546 L12,-3.95239397e-14 L16,-3.95239397e-14 Z" mask="url(#b)"/></g></svg>