<svg xmlns="http://www.w3.org/2000/svg" xmlns:xlink="http://www.w3.org/1999/xlink" width="28" height="20" viewBox="0 0 28 20"><defs><linearGradient id="c" x1="50%" x2="50%" y1="0%" y2="100%"><stop offset="0%" stop-color="#F8D246"/><stop offset="100%" stop-color="#F9CE2F"/></linearGradient><rect id="a" width="28" height="20" x="0" y="0" rx="2"/></defs><g fill="none" fill-rule="evenodd"><mask id="b" fill="#fff"><use xlink:href="#a"/></mask><use xlink:href="#a" fill="#FFF"/><rect width="9.333" height="20" x="9.333" fill="#146BBC" mask="url(#b)"/><rect width="9.333" height="20" fill="#E43642" mask="url(#b)"/><rect width="9.333" height="20" x="18.667" fill="#E43642" mask="url(#b)"/><path fill="url(#c)" d="M5.33333333,12 L6.66666667,12 L6.66666667,16 L5.33333333,16 Z M4,12 L4,16 L2.66666667,16 L2.66666667,12 L4,12 Z M5.33333333,14.6666667 L4.66666667,16 L4,14.6666667 L5.33333333,14.6666667 Z M4.66666667,13.3333333 C5.0348565,13.3333333 5.33333333,13.6318102 5.33333333,14 C5.33333333,14.3681898 5.0348565,14.6666667 4.66666667,14.6666667 C4.29847683,14.6666667 4,14.3681898 4,14 C4,13.6318102 4.29847683,13.3333333 4.66666667,13.3333333 Z M5.33333333,12 L4.66666667,13.3333333 L4,12 L5.33333333,12 Z M4.66666667,10.6666667 C5.0348565,10.6666667 5.33333333,10.9651435 5.33333333,11.3333333 C5.33333333,11.7015232 5.0348565,12 4.66666667,12 C4.29847683,12 4,11.7015232 4,11.3333333 C4,10.9651435 4.29847683,10.6666667 4.66666667,10.6666667 Z M4.66666667,10 L5.33333333,10.6666667 L4,10.6666667 L4.66666667,10 Z" mask="url(#b)"/></g></svg>