<svg xmlns="http://www.w3.org/2000/svg" xmlns:xlink="http://www.w3.org/1999/xlink" width="28" height="20" viewBox="0 0 28 20"><defs><rect id="a" width="28" height="20" x="0" y="0" rx="2"/></defs><g fill="none" fill-rule="evenodd"><mask id="b" fill="#fff"><use xlink:href="#a"/></mask><use xlink:href="#a" fill="#FFF"/><rect width="28" height="20" fill="#108B4D" mask="url(#b)"/><path fill="#FFC941" d="M19.8136496,7.73333359 C19.86222,8.04076762 19.8874417,8.35596561 19.8874417,8.67705446 C19.8874417,11.990763 17.2011502,14.6770545 13.8874417,14.6770545 C10.5737332,14.6770545 7.88744174,11.990763 7.88744174,8.67705446 C7.88744174,8.35596561 7.91266347,8.04076762 7.96123383,7.73333359 C8.41392046,10.5986874 10.8948221,12.7896127 13.8874417,12.7896127 C16.8800614,12.7896127 19.360963,10.5986874 19.8136496,7.73333359 L19.8136496,7.73333359 Z M14,8.56408669 L12.3519094,9.73896809 L12.96,7.80848243 L11.3333333,6.60411341 L13.3572446,6.58588906 L14,4.66666667 L14.6427554,6.58588906 L16.6666667,6.60411341 L15.04,7.80848243 L15.6480906,9.73896809 L14,8.56408669 L14,8.56408669 Z" mask="url(#b)"/></g></svg>