<svg xmlns="http://www.w3.org/2000/svg" xmlns:xlink="http://www.w3.org/1999/xlink" width="28" height="20" viewBox="0 0 28 20"><defs><rect id="a" width="28" height="20" x="0" y="0" rx="2"/><path id="c" d="M0,4.66666667 L3.43775544e-17,1.33245595 C1.53913554e-17,0.59656085 0.591622194,0 1.33307666,0 L5.33359001,0 C6.06982792,0 6.66666667,0.587946256 6.66666667,1.33245595 L6.66666667,4.66666667 C6.66666667,8 3.33333333,9.33333333 3.33333333,9.33333333 C3.33333333,9.33333333 0,8 0,4.66666667 Z"/></defs><g fill="none" fill-rule="evenodd"><mask id="b" fill="#fff"><use xlink:href="#a"/></mask><use xlink:href="#a" fill="#FFF"/><rect width="28" height="20" fill="#07319C" mask="url(#b)"/><g mask="url(#b)"><g transform="translate(17.333 5.333)"><mask id="d" fill="#fff"><use xlink:href="#c"/></mask><use xlink:href="#c" fill="#08B9D6"/><polygon fill="#A63D09" points="0 6.667 6.667 6.667 6.667 9.333 4 9.333 2.667 9.333 0 9.333" mask="url(#d)"/><path fill="#262626" d="M4,1.33333333 L3.99933333,2.66633333 L5.33333333,2.66666667 L5.33333333,4 L3.99933333,3.99933333 L4,6.66666667 L2.66666667,6.66666667 L2.66633333,3.99933333 L1.33333333,4 L1.33333333,2.66666667 L2.66633333,2.66633333 L2.66666667,1.33333333 L4,1.33333333 Z" mask="url(#d)"/></g></g><path fill="#DB1E36" stroke="#FFF" stroke-width=".667" d="M12.2968145,-0.578591639 C12.4289261,0.574083174 12.1796848,0.947954902 11.9158002,1.1364439 L7.66666667,4.1715393 L7.66666667,5.18002169 L15.1566841,11.6000366 L6.57256028,6.33333333 L5.42893208,6.33333333 L-0.333333333,9.93474921 L-0.333333333,8.49512737 L4.33333333,5.16179403 L4.33333333,4.15331164 L-0.901085803,-0.333333333 L0.773488351,-0.333333333 L5.44015502,3 L6.57106792,3 Z" mask="url(#b)"/><path fill="#FFF" d="M0,3.33333333 L0,6 L4.66666667,6 L4.66666667,9.33948135 C4.66666667,9.70427573 4.97256724,10 5.33957926,10 L6.66042074,10 C7.0320601,10 7.33333333,9.69934988 7.33333333,9.33948135 L7.33333333,6 L11.9911963,6 C12.3642483,6 12.6666667,5.69409943 12.6666667,5.3270874 L12.6666667,4.00624593 C12.6666667,3.63460657 12.3646425,3.33333333 11.9911963,3.33333333 L7.33333333,3.33333333 L7.33333333,0 L4.66666667,0 L4.66666667,3.33333333 L0,3.33333333 Z" mask="url(#b)"/><polygon fill="#DB1E36" points="0 4 5.333 4 5.333 3.333 5.333 0 6.667 0 6.667 3.333 6.667 4 12 4 12 5.333 6.667 5.333 6.667 6 6.667 9.333 5.333 9.333 5.333 6 5.333 5.333 0 5.333" mask="url(#b)"/></g></svg>