<svg xmlns="http://www.w3.org/2000/svg" xmlns:xlink="http://www.w3.org/1999/xlink" width="28" height="20" viewBox="0 0 28 20"><defs><rect id="a" width="28" height="20" x="0" y="0" rx="2"/></defs><g fill="none" fill-rule="evenodd"><mask id="b" fill="#fff"><use xlink:href="#a"/></mask><use xlink:href="#a" fill="#FFF"/><path fill="#E1244A" d="M13.3333333,0 L28,0 L28,1.33333333 L13.3333333,1.33333333 L13.3333333,0 Z M13.3333333,2.66666667 L28,2.66666667 L28,4 L13.3333333,4 L13.3333333,2.66666667 Z M13.3333333,5.33333333 L28,5.33333333 L28,6.66666667 L13.3333333,6.66666667 L13.3333333,5.33333333 Z M13.3333333,8 L28,8 L28,9.33333333 L13.3333333,9.33333333 L13.3333333,8 Z M0,10.6666667 L28,10.6666667 L28,12 L0,12 L0,10.6666667 Z M0,13.3333333 L28,13.3333333 L28,14.6666667 L0,14.6666667 L0,13.3333333 Z M0,16 L28,16 L28,17.3333333 L0,17.3333333 L0,16 Z M0,18.6666667 L28,18.6666667 L28,20 L0,20 L0,18.6666667 Z" mask="url(#b)"/><rect width="16" height="10.667" fill="#0C3F8E" mask="url(#b)"/><path fill="#FFD34F" d="M6.66666667,1.33333333 C7.61178022,1.33333333 8.48033641,1.66111433 9.16485679,2.20919786 C8.80218128,2.07392284 8.40972344,2 8,2 C6.15905083,2 4.66666667,3.49238417 4.66666667,5.33333333 C4.66666667,7.1742825 6.15905083,8.66666667 8,8.66666667 C8.40972344,8.66666667 8.80218128,8.59274382 9.16476382,8.45750783 C8.48033641,9.00555234 7.61178022,9.33333333 6.66666667,9.33333333 C4.45752767,9.33333333 2.66666667,7.54247233 2.66666667,5.33333333 C2.66666667,3.12419433 4.45752767,1.33333333 6.66666667,1.33333333 Z M10.6666667,2.66666667 L11.1410462,4.34827405 L12.7515506,3.67069386 L11.7325878,5.09004378 L13.2664744,5.92672249 L11.5214691,6.01501551 L11.82369,7.73591698 L10.6666667,6.42666666 L9.50964336,7.73591698 L9.81186425,6.01501551 L8.0668589,5.92672249 L9.60074549,5.09004378 L8.58178271,3.67069386 L10.1922871,4.34827405 L10.6666667,2.66666667 Z" mask="url(#b)"/></g></svg>