<svg xmlns="http://www.w3.org/2000/svg" xmlns:xlink="http://www.w3.org/1999/xlink" width="28" height="20" viewBox="0 0 28 20"><defs><rect id="a" width="28" height="20" x="0" y="0" rx="2"/></defs><g fill="none" fill-rule="evenodd"><mask id="b" fill="#fff"><use xlink:href="#a"/></mask><use xlink:href="#a" fill="#FFF"/><polygon fill="#0C4799" points="0 13.333 28 0 0 0" mask="url(#b)"/><polygon fill="#FFD243" points="4.667 6 3.646 7.13 3.724 5.609 2.203 5.687 3.333 4.667 2.203 3.646 3.724 3.724 3.646 2.203 4.667 3.333 5.687 2.203 5.609 3.724 7.13 3.646 6 4.667 7.13 5.687 5.609 5.609 5.687 7.13" mask="url(#b)"/><polygon fill="#1BAC55" points="0 20 28 20 28 6.667" mask="url(#b)"/><polygon fill="#FFF" points="3.082 22.667 30.171 5.74 24.918 -2.667 -2.171 14.26" mask="url(#b)"/><polygon fill="#E52347" points="-.629 23.072 32.162 2.582 28.629 -3.072 -4.162 17.418" mask="url(#b)"/></g></svg>