<svg xmlns="http://www.w3.org/2000/svg" xmlns:xlink="http://www.w3.org/1999/xlink" width="28" height="20" viewBox="0 0 28 20"><defs><rect id="a" width="28" height="20" x="0" y="0" rx="2"/></defs><g fill="none" fill-rule="evenodd"><mask id="b" fill="#fff"><use xlink:href="#a"/></mask><rect width="27.5" height="19.5" x=".25" y=".25" stroke="#F5F5F5" stroke-width=".5" rx="2"/><path fill="#F14247" d="M0,12 L8,12 L8,20 L0,20 L0,12 Z M28,12 L28,20 L12,20 L12,12 L28,12 Z M28,0 L28,8 L12,8 L12,0 L28,0 Z M8,8 L0,8 L0,0 L8,0 L8,8 Z" mask="url(#b)"/><polygon fill="#0A3A85" points="0 10.667 9.333 10.667 9.333 20 10.667 20 10.667 10.667 28 10.667 28 9.333 10.667 9.333 10.667 0 9.333 0 9.333 9.333 0 9.333" mask="url(#b)"/></g></svg>