<svg xmlns="http://www.w3.org/2000/svg" xmlns:xlink="http://www.w3.org/1999/xlink" width="28" height="20" viewBox="0 0 28 20"><defs><rect id="a" width="28" height="20" x="0" y="0" rx="2"/></defs><g fill="none" fill-rule="evenodd"><mask id="b" fill="#fff"><use xlink:href="#a"/></mask><rect width="27.5" height="19.5" x=".25" y=".25" stroke="#F5F5F5" stroke-width=".5" rx="2"/><path fill="#E52448" d="M28,0 L28,9.33333333 L13.3333333,9.33333333 L13.3333333,0 L28,0 Z" mask="url(#b)"/><path fill="#1367AE" d="M13.3333333,20 L0,20 L0,9.33333333 L13.3333333,9.33333333 L13.3333333,20 Z" mask="url(#b)"/><polygon fill="#1367AE" points="6.667 5.76 5.099 6.824 5.627 5.005 4.131 3.843 6.024 3.782 6.667 2 7.309 3.782 9.203 3.843 7.706 5.005 8.234 6.824" mask="url(#b)"/><polygon fill="#E52448" points="20.667 15.76 19.099 16.824 19.627 15.005 18.131 13.843 20.024 13.782 20.667 12 21.309 13.782 23.203 13.843 21.706 15.005 22.234 16.824" mask="url(#b)"/></g></svg>