<svg xmlns="http://www.w3.org/2000/svg" xmlns:xlink="http://www.w3.org/1999/xlink" width="28" height="20" viewBox="0 0 28 20"><defs><circle id="c" cx="3.333" cy="3.333" r="3.333"/><rect id="a" width="28" height="20" x="0" y="0" rx="2"/></defs><g fill="none" fill-rule="evenodd"><mask id="b" fill="#fff"><use xlink:href="#a"/></mask><rect width="27.5" height="19.5" x=".25" y=".25" stroke="#F5F5F5" stroke-width=".5" rx="2"/><rect width="28" height="5.333" fill="#D82332" mask="url(#b)"/><rect width="28" height="5.333" y="14.667" fill="#D82332" mask="url(#b)"/><g mask="url(#b)"><g transform="translate(10.667 6.667)"><path fill="#064A89" d="M2.40084656 4.08602151 2.11640212 4.35129032C2.37354497 4.42344086 2.73026455 4.33946237 2.87227513 4.08602151L2.40084656 4.08602151M.105820106 4.26673491C.298306878 4.45920803.617142857 4.43673491.80962963 4.31490695 1.00222222 4.19297147 1.1437037 4.18522953 1.2637037 4.19802523 1.27640212 4.30662738 1.3047619 4.44587469 1.35343915 4.5835091L.211534392 4.5835091C.183174603 4.51297147.127830688 4.34856286.105820106 4.26673491M.317460317 4.78112482C.541587302 4.67521084.770687831 4.75918933.86984127 4.83553342 1.05291005 4.97671621 1.35534392 4.93843664 1.5037037 4.85832912 1.56031746 4.95069471 1.62910053 5.04155492 1.71206349 5.11090976L.49026455 5.11090976C.440634921 5.03080224.333333333 4.83392052.317460317 4.78112482M5.63142857 5.65822788C5.68507937 5.60371175 5.75767196 5.5139268 5.80507937 5.44984078 5.72613757 5.44016336 5.63439153 5.38306659 5.5368254 5.33435691 5.3568254 5.24446444 5.18486772 5.24446444 5.03174603 5.35037841 4.80455026 5.50747519 4.52042328 5.54596981 4.2994709 5.38887304 4.05703704 5.21639992 3.83238095 5.25414185 3.64296296 5.36328164 3.45354497 5.47220637 3.33365079 5.47865798 3.22 5.47865798 3.10634921 5.47865798 2.98645503 5.47220637 2.79703704 5.36328164 2.60761905 5.25414185 2.38296296 5.21639992 2.1405291 5.38887304 1.91957672 5.54596981 1.63544974 5.50747519 1.40825397 5.35037841 1.25513228 5.24446444 1.0831746 5.24446444.903174603 5.33435691.805502646 5.38306659.713862434 5.44016336.634920635 5.44984078.682328042 5.5139268.754920635 5.60371175.808571429 5.65822788L5.63142857 5.65822788M5.04 6.19451613C5.09047619 6.16247312 5.22941799 6.05666667 5.29883598 6.00215054 5.22306878 6.01817204 5.05037037 5.96193548 4.96116402 5.91548387 4.70222222 5.78075269 4.53185185 5.79365591 4.33936508 5.89623656 4.14677249 5.99892473 3.87534392 6.05344086 3.67650794 5.9444086 3.47767196 5.83537634 3.33555556 5.80645161 3.23142857 5.80645161 3.12730159 5.80645161 2.98518519 5.83537634 2.78634921 5.9444086 2.58751323 6.05344086 2.31608466 5.99892473 2.12349206 5.89623656 1.93100529 5.79365591 1.76063492 5.78075269 1.50169312 5.91548387 1.41248677 5.96193548 1.23978836 6.01817204 1.16402116 6.00215054 1.23343915 6.05666667 1.37238095 6.16247312 1.42285714 6.19451613L5.04 6.19451613M3.90169312 5.1283871C3.84804233 5.09956989 3.78529101 5.03236559 3.72804233 4.94612903 3.63650794 4.80817204 3.49132275 4.7311828 3.27354497 4.7311828 3.0557672 4.7311828 2.91058201 4.80817204 2.81904762 4.94612903 2.76179894 5.03236559 2.69904762 5.09956989 2.64550265 5.1283871L3.90169312 5.1283871M3.5437037 4.63322581C3.5215873 4.59473118 3.47428571 4.4727957 3.45851852 4.40860215 3.40793651 4.42473118 3.31015873 4.43107527 3.25333333 4.43107527 3.19650794 4.43107527 3.09873016 4.42473118 3.04814815 4.40860215 3.03238095 4.4727957 2.98507937 4.59473118 2.96296296 4.63322581L3.5437037 4.63322581M4.06931217 4.08602151 4.35375661 4.35129032C4.09661376 4.42344086 3.73989418 4.33946237 3.5978836 4.08602151L4.06931217 4.08602151M6.43280423 4.26673491C6.24031746 4.45920803 5.92148148 4.43673491 5.72899471 4.31490695 5.53640212 4.19297147 5.39492063 4.18522953 5.27492063 4.19802523 5.2621164 4.30662738 5.23386243 4.44587469 5.18518519 4.5835091L6.32708995 4.5835091C6.35544974 4.51297147 6.41068783 4.34856286 6.43280423 4.26673491M6.26232804 4.78112482C6.03820106 4.67521084 5.80910053 4.75918933 5.70994709 4.83553342 5.52687831 4.97671621 5.22444444 4.93843664 5.07608466 4.85832912 5.0194709 4.95069471 4.95068783 5.04155492 4.86772487 5.11090976L6.08952381 5.11090976C6.13915344 5.03080224 6.24656085 4.83392052 6.26232804 4.78112482M4.49216931 6.40489715C4.10941799 6.56360682 3.69058201 6.65124123 3.25164021 6.65124123 2.81227513 6.65124123 2.39365079 6.56371435 2.01058201 6.40468209 2.09259259 6.3951122 2.20126984 6.35489715 2.28888889 6.30532725 2.43100529 6.2251122 2.68973545 6.20909069 2.81291005 6.28930575 2.93597884 6.3695208 3.08433862 6.44962833 3.25164021 6.44962833 3.4189418 6.44962833 3.56730159 6.3695208 3.69037037 6.28930575 3.81343915 6.20909069 4.07227513 6.2251122 4.21439153 6.30532725 4.30190476 6.35489715 4.41005291 6.39532725 4.49216931 6.40489715"/><path fill="#514537" d="M3.95851852.0602550439C3.26730159-.0840460313 2.64550265-.000712698005 2.64550265.66003999L2.64550265 2.46896472C2.64550265 2.66778193 2.64941799 2.69294322 2.88222222 2.74799698 3.38719577 2.86745935 3.43449735 2.87950236 3.9837037 3.0076744L3.9837037 1.14756687C3.55449735 1.09939483 3.39037037.854663646 3.39037037.570255044 3.39037037.294448592 3.57968254.114771173 3.95851852.0602550439M2.18720592 5.16182796C1.80212655 5.16182796 1.39810539 4.82182796 1.39810539 4.17397849L1.39810539 2.56387097C1.39810539 2.41795699 1.41429587 2.39741935 1.38075089 2.36344086 1.36106835 2.34344086 1.40286729 2.31376344 1.43122708 2.28483871 1.47387259 2.24150538 1.50307894 2.20548387 1.4455128 2.14688172 1.38784084 2.0883871 1.4123911 2.07311828 1.4486874 2.03634409 1.4849837 1.99935484 1.49916359 1.96258065 1.4644546 1.9272043 1.4297456 1.89193548 1.42180909 1.88075269 1.45969269 1.84225806 1.49757629 1.80376344 1.48180909 1.78774194 1.4502747 1.7555914 1.41863449 1.72354839 1.40371386 1.70032258 1.4439255 1.65946237 1.4833964 1.61935484 1.48646518 1.61290323 1.53228528 1.61290323L1.72170327 1.61290323C1.76593608 1.61290323 1.76667682 1.62655914 1.72953396 1.66430108 1.68138581 1.71311828 1.66720592 1.73236559 1.72170327 1.78774194 1.77609481 1.84301075 1.77376677 1.86150538 1.73905777 1.89677419 1.68688846 1.94967742 1.66403132 1.98580645 1.71694137 2.03956989 1.76985142 2.09322581 1.77450751 2.11731183 1.73429587 2.15817204 1.69408423 2.19903226 1.69006306 2.23516129 1.73429587 2.28 1.76826412 2.31451613 1.77059216 2.33462366 1.77059216 2.39548387L1.77059216 4.03924731C1.77059216 4.31505376 1.96625354 4.48182796 2.33874031 4.48182796 2.71122708 4.48182796 2.83747047 4.32784946 2.94477206 4.22526882 2.87535407 4.71913978 2.67334349 5.16182796 2.18720592 5.16182796M3.27400171 3.58827957C3.3260652 3.60419355 3.37654139 3.6811828 3.37654139 3.76462366L3.4791869 3.76462366C3.4791869 3.69408602 3.44913399 3.58505376 3.39474245 3.51763441 3.39389589 3.5 3.39156785 3.48483871 3.38765251 3.46956989 3.4255361 3.42139785 3.4807742 3.3444086 3.4791869 3.27064516 3.4781287 3.22408602 3.4239488 3.22580645 3.4175996 3.26268817 3.41241441 3.29301075 3.39241441 3.33967742 3.35453081 3.35569892 3.35453081 3.29634409 3.3213033 3.22580645 3.27400171 3.22580645 3.22670013 3.22580645 3.19347261 3.29634409 3.19347261 3.35569892 3.15558901 3.33967742 3.13558901 3.29301075 3.13040383 3.26268817 3.12405462 3.22580645 3.06976891 3.22408602 3.06881653 3.27064516 3.06722923 3.3444086 3.12246732 3.42139785 3.16035092 3.46956989 3.15643557 3.48483871 3.15410753 3.5 3.15326097 3.51763441 3.09886944 3.58505376 3.06881653 3.69408602 3.06881653 3.76462366L3.17146203 3.76462366C3.17146203 3.6811828 3.22193822 3.60419355 3.27400171 3.58827957"/><path fill="#514537" d="M2.74490118 3.58827957C2.79696468 3.60419355 2.84754669 3.6811828 2.84754669 3.76462366L2.95008637 3.76462366C2.95008637 3.69408602 2.92013928 3.58505376 2.86564192 3.51763441 2.86490118 3.5 2.86246732 3.48483871 2.85855198 3.46956989 2.89643557 3.42139785 2.95167367 3.3444086 2.95008637 3.27064516 2.94913399 3.22408602 2.89484827 3.22580645 2.88849907 3.26268817 2.88331388 3.29301075 2.86320806 3.33967742 2.82543028 3.35569892 2.82543028 3.29634409 2.79230859 3.22580645 2.74490118 3.22580645 2.6975996 3.22580645 2.6644779 3.29634409 2.6644779 3.35569892 2.6265943 3.33967742 2.60648848 3.29301075 2.6013033 3.26268817 2.59495409 3.22580645 2.5407742 3.22408602 2.539716 3.27064516 2.5381287 3.3444086 2.59336679 3.42139785 2.63125039 3.46956989 2.62733505 3.48483871 2.625007 3.5 2.62416044 3.51763441 2.56976891 3.58505376 2.539716 3.69408602 2.539716 3.76462366L2.6423615 3.76462366C2.6423615 3.6811828 2.69283769 3.60419355 2.74490118 3.58827957M2.21580065 3.58827957C2.26786415 3.60419355 2.31834034 3.6811828 2.31834034 3.76462366L2.42098584 3.76462366C2.42098584 3.69408602 2.39093293 3.58505376 2.33654139 3.51763441 2.33569483 3.5 2.33336679 3.48483871 2.32945145 3.46956989 2.36733505 3.42139785 2.42257314 3.3444086 2.42098584 3.27064516 2.41992764 3.22408602 2.36574774 3.22580645 2.35939854 3.26268817 2.35421335 3.29301075 2.33410753 3.33967742 2.29622393 3.35569892 2.29622393 3.29634409 2.26310224 3.22580645 2.21580065 3.22580645 2.16839325 3.22580645 2.13527155 3.29634409 2.13527155 3.35569892 2.09738796 3.33967742 2.07738796 3.29301075 2.07220277 3.26268817 2.06585356 3.22580645 2.01156785 3.22408602 2.01061547 3.27064516 2.00902817 3.3444086 2.06426626 3.42139785 2.10214986 3.46956989 2.09823452 3.48483871 2.09580065 3.5 2.09505991 3.51763441 2.04056256 3.58505376 2.01061547 3.69408602 2.01061547 3.76462366L2.11315515 3.76462366C2.11315515 3.6811828 2.16373716 3.60419355 2.21580065 3.58827957M3.80310224 3.58827957C3.75103875 3.60419355 3.70056256 3.6811828 3.70056256 3.76462366L3.59791706 3.76462366C3.59791706 3.69408602 3.62786415 3.58505376 3.6823615 3.51763441 3.68310224 3.5 3.6855361 3.48483871 3.68955727 3.46956989 3.65156785 3.42139785 3.59632975 3.3444086 3.59791706 3.27064516 3.59897526 3.22408602 3.65315515 3.22580645 3.65950436 3.26268817 3.66468954 3.29301075 3.68479536 3.33967742 3.72257314 3.35569892 3.72257314 3.29634409 3.75580065 3.22580645 3.80310224 3.22580645 3.85050965 3.22580645 3.88363134 3.29634409 3.88363134 3.35569892 3.92140912 3.33967742 3.94151494 3.29301075 3.94670012 3.26268817 3.95304933 3.22580645 4.00722923 3.22408602 4.00828743 3.27064516 4.00987473 3.3444086 3.95463663 3.42139785 3.91675303 3.46956989 3.92066838 3.48483871 3.92310224 3.5 3.92384298 3.51763441 3.97834034 3.58505376 4.00828743 3.69408602 4.00828743 3.76462366L3.90564192 3.76462366C3.90564192 3.6811828 3.85516573 3.60419355 3.80310224 3.58827957M4.33220277 3.58827957C4.28013928 3.60419355 4.22966309 3.6811828 4.22966309 3.76462366L4.12701759 3.76462366C4.12701759 3.69408602 4.1570705 3.58505376 4.21146203 3.51763441 4.21230859 3.5 4.21463663 3.48483871 4.21855198 3.46956989 4.18066838 3.42139785 4.12543028 3.3444086 4.12701759 3.27064516 4.12796997 3.22408602 4.18225568 3.22580645 4.18860489 3.26268817 4.19379007 3.29301075 4.21379007 3.33967742 4.25167367 3.35569892 4.25167367 3.29634409 4.28490118 3.22580645 4.33220277 3.22580645 4.37961018 3.22580645 4.41273187 3.29634409 4.41273187 3.35569892 4.45061547 3.33967742 4.47061547 3.29301075 4.47580065 3.26268817 4.48214986 3.22580645 4.53632975 3.22408602 4.53738796 3.27064516 4.53897526 3.3444086 4.48373716 3.42139785 4.44585356 3.46956989 4.44976891 3.48483871 4.45209695 3.5 4.45294351 3.51763441 4.50744087 3.58505376 4.53738796 3.69408602 4.53738796 3.76462366L4.43484827 3.76462366C4.43484827 3.6811828 4.38426626 3.60419355 4.33220277 3.58827957"/><polygon fill="#514537" points="1.905 3.871 4.682 3.871 4.682 4.004 1.905 4.004"/><path fill="#514537" d="M4.35544974,5.16182796 C4.7405291,5.16182796 5.14455026,4.82182796 5.14455026,4.17397849 L5.14455026,2.56387097 C5.14455026,2.41795699 5.12835979,2.39741935 5.16190476,2.36344086 C5.1815873,2.34344086 5.13978836,2.31376344 5.11142857,2.28483871 C5.06878307,2.24150538 5.03957672,2.20548387 5.09714286,2.14688172 C5.15481481,2.0883871 5.13026455,2.07311828 5.09407407,2.03634409 C5.05767196,1.99935484 5.04349206,1.96258065 5.07820106,1.9272043 C5.11291005,1.89193548 5.12084656,1.88075269 5.08296296,1.84225806 C5.04507937,1.80376344 5.06084656,1.78774194 5.09238095,1.7555914 C5.12402116,1.72354839 5.1389418,1.70032258 5.09873016,1.65946237 C5.05925926,1.61935484 5.05619048,1.61290323 5.01037037,1.61290323 L4.82095238,1.61290323 C4.7768254,1.61290323 4.77597884,1.62655914 4.81312169,1.66430108 C4.86126984,1.71311828 4.87544974,1.73236559 4.82095238,1.78774194 C4.76656085,1.84301075 4.76888889,1.86150538 4.80359788,1.89677419 C4.8557672,1.94967742 4.87851852,1.98580645 4.82571429,2.03956989 C4.77280423,2.09322581 4.76804233,2.11731183 4.80835979,2.15817204 C4.84857143,2.19903226 4.85259259,2.23516129 4.80835979,2.28 C4.77439153,2.31451613 4.77206349,2.33462366 4.77206349,2.39548387 L4.77206349,4.03924731 C4.77206349,4.31505376 4.5762963,4.48182796 4.20391534,4.48182796 C3.83142857,4.48182796 3.70529101,4.32784946 3.5978836,4.22526882 C3.66730159,4.71913978 3.86931217,5.16182796 4.35544974,5.16182796"/><path fill="#EEA339" d="M1.9047619 3.00763441C1.9047619 3.00763441 1.90486772 2.91301075 1.90486772 2.79569892L2.46010582 3.00774194 1.9047619 3.00763441M1.24243386 3.10612903 0 2.93591398C.0360846561 2.66537634.104338624 2.4016129.202539683 2.15053763L1.24243386 2.57 1.24243386 3.10612903M3.80952381 1.02924731 4.03037037.107526882C4.28878307.171182796 4.54.267096774 4.77809524.393548387L4.06582011 1.77892473 4.06835979 1.08333333C3.98613757 1.08376344 3.86 1.07096774 3.80952381 1.02924731M1.27173948 3.19634409.00613101701 3.11827957C-.0101652793 3.38795699.0060251969 3.66010753.0547024456 3.92860215.0547024456 3.92860215 1.27173948 3.93634409 1.27173948 3.92860215L1.27173948 3.19634409M1.25915344 2.32892473C1.21820106 2.2744086 1.24349206 2.24537634 1.28761905 2.21645161 1.33185185 2.18763441 1.32550265 2.16516129 1.30349206 2.12354839 1.28137566 2.08182796 1.25925926 2.03688172 1.30031746 1.99204301 1.34137566 1.94709677 1.32550265 1.92784946 1.29396825 1.89580645 1.26243386 1.86376344 1.25925926 1.82849462 1.28761905 1.8027957 1.31608466 1.77709677 1.30973545 1.75784946 1.29089947 1.73225806 1.27185185 1.70655914 1.23470899 1.65451613 1.26793651 1.62086022L.751640212 1.1827957C.581058201 1.39010753.435026455 1.61892473.317460317 1.86430108L1.25915344 2.32892473M2.49608466 2.56774194 1.88074074 1.96139785C1.96751323 1.87322581 1.97619048 1.8588172 1.91470899 1.79623656 1.84761905 1.72806452 1.84518519 1.72096774 1.98169312 1.58215054 2.02825397 1.53494624 2.00222222 1.50193548 1.93597884 1.50193548L1.53037037 1.50193548C1.49566138 1.50193548 1.46835979 1.50376344 1.44296296 1.52956989L.952380952 1.04698925C1.13957672.851182796 1.34867725.680322581 1.57449735.537634409L2.49608466 2.04354839 2.49608466 2.56774194M1.85610283 2.66C1.85610283 2.50935484 1.85620865 2.36021505 1.85620865 2.33903226 1.85620865 2.29408602 1.85303404 2.27645161 1.81832505 2.2411828 1.78361605 2.20591398 1.80097055 2.18903226 1.82784886 2.15053763L2.41155256 2.64462366 2.41155256 2.93473118 1.85610283 2.66M2.40285714 1.77967742 2.40285714 1.06849462C2.40285714.606666667 2.42835979.375698925 2.49460317.329247312L2.4415873.107526882C2.18243386.178387097 1.93121693.274301075 1.69312169.400752688L2.40285714 1.77967742M4.68232804 3.00763441C4.68232804 3.00763441 4.68222222 2.91301075 4.68222222 2.79569892L4.12698413 3.00774194 4.68232804 3.00763441M5.29100529 3.10612903 6.53343915 2.93591398C6.4973545 2.66537634 6.42910053 2.4016129 6.33089947 2.15053763L5.29100529 2.57 5.29100529 3.10612903M5.29100529 3.19634409 6.55650794 3.11827957C6.57280423 3.38795699 6.55671958 3.66010753 6.50793651 3.92860215 6.50793651 3.92860215 5.29100529 3.93634409 5.29100529 3.92860215L5.29100529 3.19634409M5.25101719 2.32892473C5.29207539 2.2744086 5.26667857 2.24537634 5.22255159 2.21645161 5.17831878 2.18763441 5.18466799 2.16516129 5.20667857 2.12354839 5.22879497 2.08182796 5.25091137 2.03688172 5.20985317 1.99204301 5.16879497 1.94709677 5.18466799 1.92784946 5.21620238 1.89580645 5.24773677 1.86376344 5.25091137 1.82849462 5.22255159 1.8027957 5.19408598 1.77709677 5.20043518 1.75784946 5.21927116 1.73225806 5.23831878 1.70655914 5.27535582 1.65451613 5.24223412 1.62086022L5.75853042 1.1827957C5.92911243 1.39010753 6.07503836 1.61892473 6.1926045 1.86430108L5.25101719 2.32892473M4.12698413 2.56774194 4.74232804 1.96139785C4.65544974 1.87322581 4.64677249 1.8588172 4.70835979 1.79623656 4.77544974 1.72806452 4.7778836 1.72096774 4.64137566 1.58215054 4.59470899 1.53494624 4.62084656 1.50193548 4.68708995 1.50193548L5.09269841 1.50193548C5.12740741 1.50193548 5.15470899 1.50376344 5.18010582 1.52956989L5.67068783 1.04698925C5.48349206.851182796 5.27439153.680322581 5.04857143.537634409L4.12698413 2.04354839 4.12698413 2.56774194M4.68243386 2.66C4.68243386 2.50935484 4.68232804 2.36021505 4.68232804 2.33903226 4.68232804 2.29408602 4.68550265 2.27645161 4.72021164 2.2411828 4.75492063 2.20591398 4.73756614 2.18903226 4.71068783 2.15053763L4.12698413 2.64462366 4.12698413 2.93473118 4.68243386 2.66"/><path fill="#D82332" d="M1.48148148 2.3655914C1.50359788 2.38806452 1.51312169 2.41043011 1.51312169 2.46494624L1.51312169 4.18086022C1.51312169 4.75172043 1.85396825 5.06924731 2.20433862 5.06924731 2.52624339 5.06924731 2.73777778 4.77096774 2.84825397 4.42462366 2.70624339 4.53688172 2.4978836 4.57215054 2.2989418 4.57215054 2.06857143 4.57215054 1.69619048 4.41505376 1.69619048 4.07505376L1.69619048 2.41043011C1.69619048 2.3655914 1.65195767 2.3655914 1.48148148 2.3655914M3.49437615.117372473C3.05427033.0721036557 2.64601637.165114408 2.64601637.775221935L2.64601637 2.39618968C2.64601637 2.66683484 2.62506398 2.6346843 2.85077827 2.69156602 3.26030208 2.79479183 3.30675711 2.80791011 3.80347668 2.92317892L3.80347668 1.27393161C3.3793497 1.22672731 3.19554017.944469247 3.19554017.631888602 3.19554017.383178924 3.30368832.149092903 3.49437615.117372473M5.07047619 2.3655914C5.04835979 2.38806452 5.03883598 2.41043011 5.03883598 2.46494624L5.03883598 4.18086022C5.03883598 4.75172043 4.69798942 5.06924731 4.34761905 5.06924731 4.02571429 5.06924731 3.81417989 4.77096774 3.7037037 4.42462366 3.84582011 4.53688172 4.05407407 4.57215054 4.25301587 4.57215054 4.48338624 4.57215054 4.8557672 4.41505376 4.8557672 4.07505376L4.8557672 2.41043011C4.8557672 2.3655914 4.9 2.3655914 5.07047619 2.3655914"/><mask id="d" fill="#fff"><use xlink:href="#c"/></mask><circle cx="3.333" cy="8.667" r="3.333" fill="#064A89" mask="url(#d)"/></g></g></g></svg>