<svg xmlns="http://www.w3.org/2000/svg" xmlns:xlink="http://www.w3.org/1999/xlink" width="28" height="20" viewBox="0 0 28 20"><defs><rect id="a" width="28" height="20" x="0" y="0" rx="2"/></defs><g fill="none" fill-rule="evenodd"><mask id="b" fill="#fff"><use xlink:href="#a"/></mask><use xlink:href="#a" fill="#FFF"/><rect width="28" height="20" fill="#262626" mask="url(#b)"/><polygon fill="#E8283F" points="0 0 28 0 28 20" mask="url(#b)"/><polygon fill="#FFF" points="6.667 16.667 5.724 16.943 6 16 5.724 15.057 6.667 15.333 7.609 15.057 7.333 16 7.609 16.943" mask="url(#b)"/><polygon fill="#FFF" points="6.667 8.667 5.724 8.943 6 8 5.724 7.057 6.667 7.333 7.609 7.057 7.333 8 7.609 8.943" mask="url(#b)"/><polygon fill="#FFF" points="3.333 12 2.391 12.276 2.667 11.333 2.391 10.391 3.333 10.667 4.276 10.391 4 11.333 4.276 12.276" mask="url(#b)"/><polygon fill="#FFF" points="9.333 11.333 8.391 11.609 8.667 10.667 8.391 9.724 9.333 10 10.276 9.724 10 10.667 10.276 11.609" mask="url(#b)"/><path fill="#FFD84E" d="M18.8612427,9.26556993 C18.7016228,9.16979803 18.5722254,8.94419828 18.5722254,8.76370997 L18.5722255,7.53499115 C18.5722255,7.35359345 18.4417146,7.2500452 18.2442218,7.31587611 L17.4860155,7.56861154 C17.3048641,7.62899534 17.027501,7.63444245 16.8300083,7.56861154 L16.071802,7.31587611 C15.8906506,7.25549231 15.8705221,7.1305073 16.0328156,7.03313122 L17.8118037,5.96573834 C17.9714235,5.86996646 18.0573173,5.66181708 17.9914864,5.46432437 L17.738751,4.70611807 C17.6783672,4.52496667 17.7599274,4.42161808 17.9574201,4.48744898 L18.7156264,4.74018442 C18.8967778,4.80056822 19.1196643,4.72279519 19.2170403,4.56050172 L20.2844332,2.78151359 C20.3802051,2.62189378 20.5013472,2.62300728 20.5671781,2.82049999 L20.8199135,3.57870629 C20.8802973,3.75985769 20.8857444,4.03722084 20.8199135,4.23471355 L20.5671781,4.99291985 C20.5067943,5.17407125 20.6058048,5.32092347 20.7862931,5.32092347 L22.015012,5.32092341 C22.1964097,5.3209234 22.4194958,5.44764717 22.5168719,5.60994064 L23.5842649,7.38892884 C23.6800367,7.54854866 23.6030244,7.70887625 23.4299413,7.74349286 L21.7283865,8.08380383 C21.5473841,8.12000431 21.3697224,8.30400145 21.3351058,8.47708452 L20.994795,10.1786394 C20.9585945,10.3596419 20.8025244,10.4303391 20.640231,10.332963 L18.8612427,9.26556993 L18.8612427,9.26556993 Z" mask="url(#b)"/></g></svg>