<svg xmlns="http://www.w3.org/2000/svg" xmlns:xlink="http://www.w3.org/1999/xlink" width="28" height="20" viewBox="0 0 28 20"><defs><linearGradient id="e" x1="50%" x2="50%" y1="0%" y2="100%"><stop offset="0%" stop-color="#FFF"/><stop offset="100%" stop-color="#F0F0F0"/></linearGradient><polygon id="c" points="4.667 11.274 2.707 12.697 3.455 10.394 1.496 8.97 3.918 8.969 4.667 6.667 5.416 8.969 7.837 8.97 5.878 10.394 6.626 12.697"/><filter id="d" width="110.1%" height="120.5%" x="-5.1%" y="-7.5%" filterUnits="objectBoundingBox"><feOffset dy="1" in="SourceAlpha" result="shadowOffsetOuter1"/><feColorMatrix in="shadowOffsetOuter1" values="0 0 0 0 0 0 0 0 0 0 0 0 0 0 0 0 0 0 0.06 0"/></filter><rect id="a" width="28" height="20" x="0" y="0" rx="2"/></defs><g fill="none" fill-rule="evenodd"><mask id="b" fill="#fff"><use xlink:href="#a"/></mask><rect width="27.5" height="19.5" x=".25" y=".25" stroke="#F5F5F5" stroke-width=".5" rx="2"/><path fill="#FA2222" d="M28,16 L28,20 L0,20 L0,16 L28,16 Z M28,0 L28,4 L0,4 L0,0 L28,0 Z M0,8 L28,8 L28,12 L0,12 L0,8 Z" mask="url(#b)"/><polygon fill="#1D63F9" points="0 0 13.333 10 0 20" mask="url(#b)"/><g mask="url(#b)"><use xlink:href="#c" fill="#000" filter="url(#d)"/><use xlink:href="#c" fill="url(#e)"/></g></g></svg>