<svg xmlns="http://www.w3.org/2000/svg" xmlns:xlink="http://www.w3.org/1999/xlink" width="28" height="20" viewBox="0 0 28 20"><defs><rect id="a" width="28" height="20" x="0" y="0" rx="2"/><path id="c" d="M0.666666667,3.33333333 C0.666666667,2.43490389 1.16510518,0.646168698 1.16510518,0.646168698 C1.25801503,0.28929958 1.63398345,0 1.99385198,0 L4.67281469,0 C5.03760906,0 5.40980848,0.285489549 5.50156148,0.641518055 C5.50156148,0.641518055 6,2.41347377 6,3.33333333 C6,4.19329707 5.49812738,6.02596322 5.49812738,6.02596322 C5.40711414,6.37981396 5.14040502,6.89891561 4.88998016,7.16315079 C4.88998016,7.16315079 4.33333333,8 3.33333333,8 C2.33333333,8 1.77668651,7.16315079 1.77668651,7.16315079 C1.53182931,6.88895018 1.25685819,6.37712563 1.16510518,6.016801 C1.16510518,6.016801 0.666666667,4.21472719 0.666666667,3.33333333 Z"/></defs><g fill="none" fill-rule="evenodd"><mask id="b" fill="#fff"><use xlink:href="#a"/></mask><rect width="27.5" height="19.5" x=".25" y=".25" stroke="#F5F5F5" stroke-width=".5" rx="2"/><rect width="28" height="6.667" y="6.667" fill="#17508F" mask="url(#b)"/><rect width="28" height="6.667" fill="#E1444D" mask="url(#b)"/><g mask="url(#b)"><g transform="translate(5.333 6.667)"><mask id="d" fill="#fff"><use xlink:href="#c"/></mask><use xlink:href="#c" fill="#FFF"/><line x1="6" x2=".667" y1=".667" y2="7.333" stroke="#E1444D" stroke-linecap="square" stroke-width="1.333" mask="url(#d)"/><line x1="6" x2=".667" y1=".667" y2="7.333" stroke="#E1444D" stroke-linecap="square" stroke-width="1.333" mask="url(#d)" transform="matrix(-1 0 0 1 6.667 0)"/></g></g></g></svg>