<svg xmlns="http://www.w3.org/2000/svg" xmlns:xlink="http://www.w3.org/1999/xlink" width="28" height="20" viewBox="0 0 28 20"><defs><linearGradient id="b" x1="50%" x2="50%" y1="0%" y2="100%"><stop offset="0%" stop-color="#1DBE4F"/><stop offset="100%" stop-color="#159B3F"/></linearGradient><linearGradient id="f" x1="50%" x2="50%" y1="0%" y2="100%"><stop offset="0%" stop-color="#0660D4"/><stop offset="100%" stop-color="#0051BB"/></linearGradient><polygon id="d" points="0 0 28 0 0 20"/><filter id="e" width="118.3%" height="119.7%" x="-5.4%" y="-7.5%" filterUnits="objectBoundingBox"><feMorphology in="SourceAlpha" operator="dilate" radius=".5" result="shadowSpreadOuter1"/><feOffset in="shadowSpreadOuter1" result="shadowOffsetOuter1"/><feColorMatrix in="shadowOffsetOuter1" values="0 0 0 0 0 0 0 0 0 0 0 0 0 0 0 0 0 0 0.06 0"/></filter><rect id="a" width="28" height="20" x="0" y="0" rx="2"/></defs><g fill="none" fill-rule="evenodd"><mask id="c" fill="#fff"><use xlink:href="#a"/></mask><use xlink:href="#a" fill="#FFF"/><rect width="28" height="20" fill="url(#b)" mask="url(#c)"/><g mask="url(#c)"><use xlink:href="#d" fill="#000" filter="url(#e)"/><use xlink:href="#d" fill="url(#f)"/></g><polygon fill="#2C7442" points="0 0 28 20 0 20" mask="url(#c)" transform="matrix(-1 0 0 1 28 0)"/><rect width="38.667" height="2.667" x="-5.333" y="8.667" fill="#FFD646" mask="url(#c)"/><path fill="#FFF" d="M3,3.83333333 L2.02035791,4.34836166 L2.2074529,3.25751416 L1.41490581,2.48497168 L2.51017896,2.32581917 L3,1.33333333 L3.48982104,2.32581917 L4.58509419,2.48497168 L3.7925471,3.25751416 L3.97964209,4.34836166 L3,3.83333333 Z M9.66666667,3.83333333 L8.68702458,4.34836166 L8.87411957,3.25751416 L8.08157247,2.48497168 L9.17684562,2.32581917 L9.66666667,1.33333333 L10.1564877,2.32581917 L11.2517609,2.48497168 L10.4592138,3.25751416 L10.6463088,4.34836166 L9.66666667,3.83333333 Z M9.66666667,7.83333333 L8.68702458,8.34836166 L8.87411957,7.25751416 L8.08157247,6.48497168 L9.17684562,6.32581917 L9.66666667,5.33333333 L10.1564877,6.32581917 L11.2517609,6.48497168 L10.4592138,7.25751416 L10.6463088,8.34836166 L9.66666667,7.83333333 Z M3,7.83333333 L2.02035791,8.34836166 L2.2074529,7.25751416 L1.41490581,6.48497168 L2.51017896,6.32581917 L3,5.33333333 L3.48982104,6.32581917 L4.58509419,6.48497168 L3.7925471,7.25751416 L3.97964209,8.34836166 L3,7.83333333 Z M6.33333333,5.83333333 L5.35369125,6.34836166 L5.54078624,5.25751416 L4.74823914,4.48497168 L5.84351229,4.32581917 L6.33333333,3.33333333 L6.82315438,4.32581917 L7.91842753,4.48497168 L7.12588043,5.25751416 L7.31297542,6.34836166 L6.33333333,5.83333333 Z" mask="url(#c)"/></g></svg>