<svg xmlns="http://www.w3.org/2000/svg" xmlns:xlink="http://www.w3.org/1999/xlink" width="28" height="20" viewBox="0 0 28 20"><defs><linearGradient id="b" x1="50%" x2="50%" y1="0%" y2="100%"><stop offset="0%" stop-color="#07319C"/><stop offset="100%" stop-color="#00247E"/></linearGradient><rect id="a" width="28" height="20" x="0" y="0" rx="2"/><path id="d" d="M0,4.66666667 L3.43775544e-17,1.33245595 C1.53913554e-17,0.59656085 0.591622194,0 1.33307666,0 L5.33359001,0 C6.06982792,0 6.66666667,0.587946256 6.66666667,1.33245595 L6.66666667,4.66666667 C6.66666667,8 3.33333333,9.33333333 3.33333333,9.33333333 C3.33333333,9.33333333 0,8 0,4.66666667 Z"/></defs><g fill="none" fill-rule="evenodd"><mask id="c" fill="#fff"><use xlink:href="#a"/></mask><use xlink:href="#a" fill="#FFF"/><rect width="28" height="20" fill="url(#b)" mask="url(#c)"/><g mask="url(#c)"><g transform="translate(17.333 5.333)"><mask id="e" fill="#fff"><use xlink:href="#d"/></mask><use xlink:href="#d" fill="#8FC5FF"/><path fill="#366CC9" d="M2.75653334,6.5502279 C2.75653334,6.5502279 3.42384628,5.68612867 3.81635034,5.68612867 C4.2088544,5.68612867 4.28094963,6.25990043 4.88451008,6.25990043 C5.48807053,6.25990042 5.80638158,5.34547635 6.38774717,5.34547635 C6.96911275,5.34547634 6.38774697,8.34551779 6.38774697,8.34551779 L5.5999552,9.15806909 L0.988616665,9.6906833 L2.75653334,6.5502279 Z" mask="url(#e)"/><polygon fill="#CF6200" points=".793 5.218 1.381 4.667 1.96 6.082 2.736 4.667 3.404 8.702 2.293 8.476 -1.333 6.818" mask="url(#e)"/><rect width="6.667" height="4" fill="#FF0" mask="url(#e)"/><path stroke="#FFF" stroke-width=".667" d="M5.33359001,0.333333333 C5.61054974,0.333333333 5.86148388,0.443786359 6.04267348,0.624891597 C6.22269445,0.80482874 6.33333333,1.05422386 6.33333333,1.33245595 L6.33333333,4.66666667 C6.33333333,7.41140982 3.91524477,8.69921267 3.33396251,8.96908575 C2.97350592,8.80000858 1.89814628,8.23206458 1.13544202,7.16427863 C0.677164597,6.52269023 0.333333333,5.69782042 0.333333333,4.66666667 L0.333333333,1.33245595 C0.333333333,1.05604555 0.444382524,0.805696778 0.62541511,0.624748484 C0.805827813,0.444419784 1.05556322,0.333333333 1.33307666,0.333333333 Z"/></g></g><path fill="#DB1E36" stroke="#FFF" stroke-width=".667" d="M12.2968145,-0.578591639 C12.4289261,0.574083174 12.1796848,0.947954902 11.9158002,1.1364439 L7.66666667,4.1715393 L7.66666667,5.18002169 L15.1566841,11.6000366 L6.57256028,6.33333333 L5.42893208,6.33333333 L-0.333333333,9.93474921 L-0.333333333,8.49512737 L4.33333333,5.16179403 L4.33333333,4.15331164 L-0.901085803,-0.333333333 L0.773488351,-0.333333333 L5.44015502,3 L6.57106792,3 Z" mask="url(#c)"/><path fill="#FFF" d="M0,3.33333333 L0,6 L4.66666667,6 L4.66666667,9.33948135 C4.66666667,9.70427573 4.97256724,10 5.33957926,10 L6.66042074,10 C7.0320601,10 7.33333333,9.69934988 7.33333333,9.33948135 L7.33333333,6 L11.9911963,6 C12.3642483,6 12.6666667,5.69409943 12.6666667,5.3270874 L12.6666667,4.00624593 C12.6666667,3.63460657 12.3646425,3.33333333 11.9911963,3.33333333 L7.33333333,3.33333333 L7.33333333,0 L4.66666667,0 L4.66666667,3.33333333 L0,3.33333333 Z" mask="url(#c)"/><polygon fill="#DB1E36" points="0 4 5.333 4 5.333 3.333 5.333 0 6.667 0 6.667 3.333 6.667 4 12 4 12 5.333 6.667 5.333 6.667 6 6.667 9.333 5.333 9.333 5.333 6 5.333 5.333 0 5.333" mask="url(#c)"/></g></svg>