<svg xmlns="http://www.w3.org/2000/svg" xmlns:xlink="http://www.w3.org/1999/xlink" width="28" height="20" viewBox="0 0 28 20"><defs><rect id="a" width="28" height="20" x="0" y="0" rx="2"/><rect id="c" width="28" height="6.667" x="0" y="13.333"/><filter id="d" width="110.7%" height="145%" x="-5.4%" y="-22.5%" filterUnits="objectBoundingBox"><feMorphology in="SourceAlpha" operator="dilate" radius=".5" result="shadowSpreadOuter1"/><feOffset in="shadowSpreadOuter1" result="shadowOffsetOuter1"/><feColorMatrix in="shadowOffsetOuter1" values="0 0 0 0 0 0 0 0 0 0 0 0 0 0 0 0 0 0 0.06 0"/></filter></defs><g fill="none" fill-rule="evenodd"><mask id="b" fill="#fff"><use xlink:href="#a"/></mask><rect width="27.5" height="19.5" x=".25" y=".25" stroke="#F5F5F5" stroke-width=".5" rx="2"/><path fill="#0C47B7" d="M7.33333333,4.66666667 C8.30367251,4.66666667 9.24397786,5.33333333 9.24397786,5.33333333 L9.24397786,6.66666667 L28,6.66666667 L28,13.3333333 L0,13.3333333 L0,6.66666667 L5.33333333,6.66666667 L5.33333333,5.33333333 C5.33333333,5.33333333 6.36299415,4.66666667 7.33333333,4.66666667 Z M7.33333333,6.66666667 C6.59695367,6.66666667 6,7.26362033 6,8 C6,8.73637967 6.59695367,9.33333333 7.33333333,9.33333333 C8.069713,9.33333333 8.66666667,8.73637967 8.66666667,8 C8.66666667,7.26362033 8.069713,6.66666667 7.33333333,6.66666667 Z" mask="url(#b)"/><g mask="url(#b)"><use xlink:href="#c" fill="#000" filter="url(#d)"/><use xlink:href="#c" fill="#E53B35"/></g></g></svg>