<svg xmlns="http://www.w3.org/2000/svg" xmlns:xlink="http://www.w3.org/1999/xlink" width="28" height="20" viewBox="0 0 28 20"><defs><rect id="a" width="28" height="20" x="0" y="0" rx="2"/></defs><g fill="none" fill-rule="evenodd"><mask id="b" fill="#fff"><use xlink:href="#a"/></mask><use xlink:href="#a" fill="#FFF"/><rect width="28" height="6.667" y="13.333" fill="#2ACB41" mask="url(#b)"/><rect width="28" height="6.667" fill="#2ACB41" mask="url(#b)"/><rect width="28" height="6.667" y="6.667" fill="#FDD043" mask="url(#b)"/><polygon fill="#E71E43" points="0 0 10.667 10 0 20" mask="url(#b)"/><polygon fill="#262626" points="14.667 11.093 13.099 12.157 13.627 10.338 12.131 9.176 14.024 9.115 14.667 7.333 15.309 9.115 17.203 9.176 15.706 10.338 16.234 12.157" mask="url(#b)"/><polygon fill="#262626" points="21.333 11.093 19.766 12.157 20.294 10.338 18.797 9.176 20.691 9.115 21.333 7.333 21.976 9.115 23.869 9.176 22.373 10.338 22.901 12.157" mask="url(#b)"/></g></svg>