<svg xmlns="http://www.w3.org/2000/svg" xmlns:xlink="http://www.w3.org/1999/xlink" width="28" height="20" viewBox="0 0 28 20"><defs><rect id="a" width="28" height="20" x="0" y="0" rx="2"/><path id="c" d="M0,4.66666667 L3.43775544e-17,1.33245595 C1.53913554e-17,0.59656085 0.591622194,0 1.33307666,0 L5.33359001,0 C6.06982792,0 6.66666667,0.587946256 6.66666667,1.33245595 L6.66666667,4.66666667 C6.66666667,8 3.33333333,9.33333333 3.33333333,9.33333333 C3.33333333,9.33333333 0,8 0,4.66666667 Z"/></defs><g fill="none" fill-rule="evenodd"><mask id="b" fill="#fff"><use xlink:href="#a"/></mask><use xlink:href="#a" fill="#FFF"/><rect width="28" height="20" fill="#07319C" mask="url(#b)"/><g mask="url(#b)"><g transform="translate(17.333 5.333)"><mask id="d" fill="#fff"><use xlink:href="#c"/></mask><path stroke="#FFF" stroke-width=".667" d="M5.33359001,0.333333333 C5.61054974,0.333333333 5.86148388,0.443786359 6.04267348,0.624891597 C6.22269445,0.80482874 6.33333333,1.05422386 6.33333333,1.33245595 L6.33333333,4.66666667 C6.33333333,7.41140982 3.91524477,8.69921267 3.33396251,8.96908575 C2.97350592,8.80000858 1.89814628,8.23206458 1.13544202,7.16427863 C0.677164597,6.52269023 0.333333333,5.69782042 0.333333333,4.66666667 L0.333333333,1.33245595 C0.333333333,1.05604555 0.444382524,0.805696778 0.62541511,0.624748484 C0.805827813,0.444419784 1.05556322,0.333333333 1.33307666,0.333333333 Z"/><ellipse cx="4.667" cy="2.667" fill="#BA5B1F" mask="url(#d)" rx="1" ry="1.333"/><ellipse cx="1.749" cy="2.707" fill="#FF9F3E" mask="url(#d)" rx="1" ry="1.333" transform="rotate(-20 1.75 2.707)"/><ellipse cx="2.282" cy="2.729" fill="#FF937F" mask="url(#d)" rx="1" ry="1.333" transform="rotate(25 2.282 2.73)"/><polygon fill="#01A827" points="2.667 5.333 3.333 4 4 5.333 4 6.667 2.667 6.667" mask="url(#d)"/></g></g><path fill="#DB1E36" stroke="#FFF" stroke-width=".667" d="M12.2968145,-0.578591639 C12.4289261,0.574083174 12.1796848,0.947954902 11.9158002,1.1364439 L7.66666667,4.1715393 L7.66666667,5.18002169 L15.1566841,11.6000366 L6.57256028,6.33333333 L5.42893208,6.33333333 L-0.333333333,9.93474921 L-0.333333333,8.49512737 L4.33333333,5.16179403 L4.33333333,4.15331164 L-0.901085803,-0.333333333 L0.773488351,-0.333333333 L5.44015502,3 L6.57106792,3 Z" mask="url(#b)"/><path fill="#FFF" d="M0,3.33333333 L0,6 L4.66666667,6 L4.66666667,9.33948135 C4.66666667,9.70427573 4.97256724,10 5.33957926,10 L6.66042074,10 C7.0320601,10 7.33333333,9.69934988 7.33333333,9.33948135 L7.33333333,6 L11.9911963,6 C12.3642483,6 12.6666667,5.69409943 12.6666667,5.3270874 L12.6666667,4.00624593 C12.6666667,3.63460657 12.3646425,3.33333333 11.9911963,3.33333333 L7.33333333,3.33333333 L7.33333333,0 L4.66666667,0 L4.66666667,3.33333333 L0,3.33333333 Z" mask="url(#b)"/><polygon fill="#DB1E36" points="0 4 5.333 4 5.333 3.333 5.333 0 6.667 0 6.667 3.333 6.667 4 12 4 12 5.333 6.667 5.333 6.667 6 6.667 9.333 5.333 9.333 5.333 6 5.333 5.333 0 5.333" mask="url(#b)"/></g></svg>