<svg xmlns="http://www.w3.org/2000/svg" xmlns:xlink="http://www.w3.org/1999/xlink" width="28" height="20" viewBox="0 0 28 20"><defs><rect id="a" width="28" height="20" x="0" y="0" rx="2"/></defs><g fill="none" fill-rule="evenodd"><mask id="b" fill="#fff"><use xlink:href="#a"/></mask><use xlink:href="#a" fill="#FFF"/><rect width="28" height="20" fill="#FFD44D" mask="url(#b)"/><path fill="#159A74" d="M12,0 L28,0 L28,4 L12,4 L12,0 Z M12,8 L28,8 L28,12 L12,12 L12,8 Z M0,16 L28,16 L28,20 L0,20 L0,16 Z" mask="url(#b)"/><rect width="12" height="12" fill="#ED1F45" mask="url(#b)"/><polygon fill="#FFF" points="6 7.56 3.649 9.236 4.516 6.482 2.196 4.764 5.083 4.738 6 2 6.917 4.738 9.804 4.764 7.484 6.482 8.351 9.236" mask="url(#b)"/></g></svg>