<svg xmlns="http://www.w3.org/2000/svg" xmlns:xlink="http://www.w3.org/1999/xlink" width="28" height="20" viewBox="0 0 28 20"><defs><rect id="a" width="28" height="20" x="0" y="0" rx="2"/></defs><g fill="none" fill-rule="evenodd"><mask id="b" fill="#fff"><use xlink:href="#a"/></mask><use xlink:href="#a" fill="#FFF"/><rect width="28" height="20" fill="#E92434" mask="url(#b)"/><polygon fill="#FFF" points="18.686 10.812 17.118 11.93 17.697 10.094 16.15 8.948 18.074 8.931 18.686 7.106 19.297 8.931 21.222 8.948 19.675 10.094 20.253 11.93 18.686 10.812 18.686 10.812" mask="url(#b)"/><path fill="#FFF" d="M12.6666667,4 C14.5916482,4 16.3049005,4.90652059 17.4028092,6.31594735 C16.5556241,5.70014277 15.4903749,5.33333333 14.3333333,5.33333333 C11.5719096,5.33333333 9.33333333,7.42267117 9.33333333,10 C9.33333333,12.5773288 11.5719096,14.6666667 14.3333333,14.6666667 C15.4903749,14.6666667 16.5556241,14.2998572 17.4028701,13.6840351 C16.3049005,15.0934794 14.5916482,16 12.6666667,16 C9.35295817,16 6.66666667,13.3137085 6.66666667,10 C6.66666667,6.6862915 9.35295817,4 12.6666667,4 Z" mask="url(#b)"/></g></svg>