<svg xmlns="http://www.w3.org/2000/svg" xmlns:xlink="http://www.w3.org/1999/xlink" width="28" height="20" viewBox="0 0 28 20"><defs><rect id="a" width="28" height="20" x="0" y="0" rx="2"/></defs><g fill="none" fill-rule="evenodd"><mask id="b" fill="#fff"><use xlink:href="#a"/></mask><rect width="27.5" height="19.5" x=".25" y=".25" stroke="#F5F5F5" stroke-width=".5" rx="2"/><path fill="#0E4DC5" d="M28,18.6666667 L28,20 L0,20 L0,18.6666667 L28,18.6666667 Z M28,13.3333333 L28,16 L0,16 L0,13.3333333 L28,13.3333333 Z M13.3333333,8 L28,8 L28,10.6666667 L13.3333333,10.6666667 L13.3333333,8 Z M13.3333333,2.66666667 L28,2.66666667 L28,5.33333333 L13.3333333,5.33333333 L13.3333333,2.66666667 Z" mask="url(#b)"/><path fill="#FED443" d="M7.5567504,2.85052864 L7.78220851,4.43379379 L9.16062587,3.62291436 L8.6768036,5.14720958 L10.2705421,5.01470534 L9.17326643,6.17812525 L10.6666667,6.75024029 L9.17326643,7.32235533 L10.2705421,8.48577525 L8.6768036,8.35327101 L9.16062587,9.87756622 L7.78220851,9.06668679 L7.5567504,10.6499519 L6.66666667,9.32130194 L5.77658293,10.6499519 L5.55112483,9.06668679 L4.17270746,9.87756622 L4.65652973,8.35327101 L3.0627912,8.48577525 L4.16006691,7.32235533 L2.66666667,6.75024029 L4.16006691,6.17812525 L3.0627912,5.01470534 L4.65652973,5.14720958 L4.17270746,3.62291436 L5.55112483,4.43379379 L5.77658293,2.85052864 L6.66666667,4.17917865 L7.5567504,2.85052864 Z M6.66666667,4.20478575 C5.26085094,4.20478575 4.12121212,5.34442457 4.12121212,6.75024029 C4.12121212,8.15605602 5.26085094,9.29569484 6.66666667,9.29569484 C8.07248239,9.29569484 9.21212121,8.15605602 9.21212121,6.75024029 C9.21212121,5.34442457 8.07248239,4.20478575 6.66666667,4.20478575 Z M6.66666667,4.66666667 C7.77123617,4.66666667 8.66666667,5.56209717 8.66666667,6.66666667 C8.66666667,7.77123617 7.77123617,8.66666667 6.66666667,8.66666667 C5.56209717,8.66666667 4.66666667,7.77123617 4.66666667,6.66666667 C4.66666667,5.56209717 5.56209717,4.66666667 6.66666667,4.66666667 Z" mask="url(#b)"/></g></svg>