<svg xmlns="http://www.w3.org/2000/svg" xmlns:xlink="http://www.w3.org/1999/xlink" width="28" height="20" viewBox="0 0 28 20"><defs><rect id="a" width="28" height="20" x="0" y="0" rx="2"/></defs><g fill="none" fill-rule="evenodd"><mask id="b" fill="#fff"><use xlink:href="#a"/></mask><use xlink:href="#a" fill="#FFF"/><rect width="28" height="6.667" y="6.667" fill="#063191" mask="url(#b)"/><rect width="28" height="6.667" y="13.333" fill="#E2213B" mask="url(#b)"/><path fill="#FFF" d="M14,9.33333333 C14.3681898,9.33333333 14.6666667,9.0348565 14.6666667,8.66666667 C14.6666667,8.29847683 14.3681898,8 14,8 C13.6318102,8 13.3333333,8.29847683 13.3333333,8.66666667 C13.3333333,9.0348565 13.6318102,9.33333333 14,9.33333333 Z M11.3333333,10 C11.7015232,10 12,9.70152317 12,9.33333333 C12,8.9651435 11.7015232,8.66666667 11.3333333,8.66666667 C10.9651435,8.66666667 10.6666667,8.9651435 10.6666667,9.33333333 C10.6666667,9.70152317 10.9651435,10 11.3333333,10 Z M16.6666667,10 C17.0348565,10 17.3333333,9.70152317 17.3333333,9.33333333 C17.3333333,8.9651435 17.0348565,8.66666667 16.6666667,8.66666667 C16.2984768,8.66666667 16,8.9651435 16,9.33333333 C16,9.70152317 16.2984768,10 16.6666667,10 Z M10,12 C10.3681898,12 10.6666667,11.7015232 10.6666667,11.3333333 C10.6666667,10.9651435 10.3681898,10.6666667 10,10.6666667 C9.63181017,10.6666667 9.33333333,10.9651435 9.33333333,11.3333333 C9.33333333,11.7015232 9.63181017,12 10,12 Z M18,12 C18.3681898,12 18.6666667,11.7015232 18.6666667,11.3333333 C18.6666667,10.9651435 18.3681898,10.6666667 18,10.6666667 C17.6318102,10.6666667 17.3333333,10.9651435 17.3333333,11.3333333 C17.3333333,11.7015232 17.6318102,12 18,12 Z" mask="url(#b)"/><rect width="28" height="6.667" fill="#FFD044" mask="url(#b)"/></g></svg>