<svg xmlns="http://www.w3.org/2000/svg" xmlns:xlink="http://www.w3.org/1999/xlink" width="28" height="20" viewBox="0 0 28 20"><defs><linearGradient id="c" x1="50%" x2="50%" y1="0%" y2="100%"><stop offset="0%" stop-color="#F12F1F"/><stop offset="100%" stop-color="#DE2010"/></linearGradient><rect id="a" width="28" height="20" x="0" y="0" rx="2"/></defs><g fill="none" fill-rule="evenodd"><mask id="b" fill="#fff"><use xlink:href="#a"/></mask><use xlink:href="#a" fill="#FFF"/><rect width="28" height="2.667" fill="#369D0C" mask="url(#b)"/><rect width="28" height="2.667" y="17.333" fill="#369D0C" mask="url(#b)"/><rect width="28" height="2.667" y="5.333" fill="#369D0C" mask="url(#b)"/><rect width="28" height="2.667" y="12" fill="#369D0C" mask="url(#b)"/><rect width="28" height="4" y="8" fill="#262626" mask="url(#b)"/><rect width="28" height="2.667" y="2.667" fill="#FFD40E" mask="url(#b)"/><rect width="28" height="2.667" y="14.667" fill="#FFD40E" mask="url(#b)"/><path fill="#FFF" stroke="#262626" stroke-width="1.333" d="M-0.666666667,0.666666667 L12.2222222,10 L-0.222222222,19.3333333 L-0.666666667,19.3333333 L-0.666666667,0.666666667 Z" mask="url(#b)"/><polygon fill="url(#c)" points="4 11.3 2.041 12.697 2.764 10.402 .83 8.97 3.236 8.948 4 6.667 4.764 8.948 7.17 8.97 5.236 10.402 5.959 12.697" mask="url(#b)"/></g></svg>